<svg width="29" height="21" viewBox="0 0 29 21" fill="none" xmlns="http://www.w3.org/2000/svg">
<path d="M3.46004 0.260906L25.5334 0.256896C27.6157 0.256517 28.6655 1.23921 28.6658 3.23831L28.6684 17.2653C28.6687 19.2477 27.6194 20.2475 25.537 20.2478L3.46367 20.2518C1.38128 20.2522 0.331575 19.2529 0.331215 17.2704L0.328667 3.24346C0.328304 1.24436 1.37765 0.261284 3.46004 0.260906ZM14.491 14.5857L25.7175 5.37121C26.1173 5.03796 26.4337 4.27158 25.9338 3.58865C25.4505 2.90571 24.5676 2.88921 23.9846 3.30579L14.4901 9.73794L5.00989 3.30924C4.42674 2.89287 3.54381 2.90969 3.06082 3.5928C2.56118 4.27591 2.87784 5.04218 3.27772 5.37529L14.491 14.5857Z" fill="white"/>
</svg>
