<svg width="801" height="97" viewBox="0 0 801 97" fill="none" xmlns="http://www.w3.org/2000/svg">
<g clip-path="url(#clip0_1_2776)">
<path d="M146.164 47.177L136.169 12.2697L144.232 12.2683L150.015 36.5229L150.304 36.5228L156.675 12.266L163.578 12.2647L169.941 36.5704L170.248 36.5703L176.022 12.2625L184.084 12.261L174.102 47.1719L166.909 47.1732L160.257 24.3506L159.984 24.3506L153.357 47.1757L146.164 47.177ZM195.824 47.6793C193.131 47.6798 190.812 47.1348 188.869 46.0442C186.937 44.9423 185.448 43.3858 184.402 41.3746C183.356 39.3521 182.833 36.9601 182.833 34.1987C182.832 31.5056 183.354 29.1418 184.399 27.1075C185.445 25.0733 186.916 23.4878 188.813 22.3511C190.722 21.2144 192.961 20.6458 195.529 20.6453C197.256 20.645 198.864 20.9231 200.353 21.4796C201.853 22.0248 203.16 22.8485 204.274 23.9505C205.399 25.0526 206.274 26.4388 206.9 28.1091C207.525 29.7681 207.838 31.7112 207.838 33.9385L207.839 35.9328L185.731 35.9368L185.73 31.4368L201.003 31.4341C201.002 30.3886 200.775 29.4625 200.32 28.6558C199.866 27.8491 199.235 27.2185 198.428 26.7641C197.632 26.2983 196.706 26.0655 195.649 26.0657C194.547 26.0659 193.57 26.3218 192.718 26.8333C191.877 27.3335 191.218 28.0097 190.741 28.8621C190.264 29.7031 190.019 30.6406 190.008 31.6747L190.009 35.9531C190.009 37.2486 190.248 38.3678 190.726 39.3109C191.214 40.254 191.902 40.9812 192.788 41.4924C193.675 42.0036 194.726 42.2591 195.942 42.2589C196.749 42.2587 197.487 42.1449 198.158 41.9175C198.828 41.6902 199.402 41.3491 199.879 40.8945C200.356 40.4399 200.72 39.883 200.97 39.2239L207.686 39.6658C207.345 41.2795 206.647 42.6887 205.59 43.8935C204.545 45.0868 203.193 46.0189 201.534 46.6897C199.886 47.3491 197.983 47.6789 195.824 47.6793ZM221.425 47.1633L221.419 12.2542L228.799 12.2529L228.802 26.6563L243.785 26.6536L243.782 12.2502L251.146 12.2488L251.152 47.1579L243.789 47.1593L243.786 32.7388L228.803 32.7415L228.806 47.162L221.425 47.1633ZM263.367 47.65C261.697 47.6503 260.208 47.3608 258.901 46.7815C257.594 46.1908 256.56 45.3217 255.798 44.1741C255.048 43.0152 254.673 41.5721 254.673 39.8448C254.672 38.3902 254.939 37.1686 255.473 36.1799C256.007 35.1911 256.734 34.3955 257.654 33.7931C258.575 33.1907 259.62 32.7359 260.791 32.4289C261.972 32.1219 263.211 31.9057 264.506 31.7805C266.029 31.6211 267.256 31.4732 268.188 31.3366C269.12 31.1887 269.796 30.9727 270.216 30.6885C270.637 30.4044 270.847 29.9839 270.847 29.4271L270.847 29.3248C270.847 28.2453 270.506 27.4101 269.824 26.8193C269.153 26.2285 268.198 25.9332 266.96 25.9335C265.653 25.9337 264.613 26.2237 263.841 26.8033C263.068 27.3717 262.557 28.0877 262.307 28.9513L255.591 28.4071C255.932 26.8161 256.602 25.441 257.602 24.2817C258.601 23.1111 259.891 22.2131 261.47 21.5879C263.061 20.9512 264.902 20.6327 266.993 20.6323C268.447 20.6321 269.84 20.8023 271.169 21.1429C272.51 21.4836 273.698 22.0118 274.732 22.7275C275.778 23.4432 276.602 24.3635 277.204 25.4884C277.806 26.6019 278.108 27.9371 278.108 29.4939L278.111 47.153L271.225 47.1543L271.224 43.5236L271.02 43.5236C270.599 44.3419 270.037 45.0636 269.333 45.6887C268.628 46.3025 267.782 46.7856 266.793 47.138C265.805 47.4791 264.663 47.6498 263.367 47.65ZM265.446 42.6383C266.514 42.6381 267.457 42.4277 268.275 42.0071C269.093 41.5751 269.735 40.9955 270.201 40.2681C270.667 39.5407 270.9 38.7168 270.899 37.7964L270.899 35.018C270.672 35.1657 270.359 35.3022 269.962 35.4272C269.575 35.5409 269.138 35.649 268.649 35.7513C268.16 35.8423 267.672 35.9276 267.183 36.0073C266.695 36.0755 266.251 36.1381 265.854 36.195C265.001 36.3202 264.257 36.5192 263.621 36.792C262.985 37.0649 262.49 37.4343 262.138 37.9002C261.786 38.3549 261.61 38.9231 261.61 39.6049C261.61 40.5935 261.968 41.3491 262.684 41.8717C263.412 42.383 264.332 42.6385 265.446 42.6383ZM306.012 20.9661L296.863 47.1496L288.681 47.1511L279.523 20.9709L287.194 20.9696L292.634 39.7015L292.907 39.7015L298.324 20.9675L306.012 20.9661ZM319.621 47.6568C316.927 47.6573 314.609 47.1123 312.666 46.0217C310.734 44.9198 309.245 43.3633 308.199 41.3521C307.153 39.3296 306.63 36.9376 306.629 34.1762C306.629 31.4831 307.151 29.1193 308.196 27.0851C309.241 25.0508 310.713 23.4653 312.61 22.3286C314.519 21.1919 316.758 20.6233 319.326 20.6228C321.053 20.6225 322.661 20.9006 324.15 21.4572C325.65 22.0023 326.957 22.826 328.071 23.928C329.196 25.0301 330.071 26.4163 330.697 28.0866C331.322 29.7456 331.635 31.6888 331.635 33.916L331.635 35.9103L309.527 35.9144L309.527 31.4144L324.799 31.4116C324.799 30.3661 324.572 29.44 324.117 28.6333C323.662 27.8266 323.032 27.196 322.225 26.7416C321.429 26.2758 320.503 26.043 319.446 26.0432C318.344 26.0434 317.367 26.2993 316.514 26.8108C315.674 27.311 315.015 27.9872 314.538 28.8396C314.06 29.6806 313.816 30.6181 313.805 31.6522L313.806 35.9306C313.806 37.2261 314.045 38.3454 314.522 39.2885C315.011 40.2315 315.699 40.9587 316.585 41.4699C317.472 41.9811 318.523 42.2366 319.739 42.2364C320.546 42.2362 321.284 42.1225 321.955 41.8951C322.625 41.6677 323.199 41.3266 323.676 40.872C324.153 40.4174 324.517 39.8605 324.767 39.2014L331.483 39.6433C331.142 41.257 330.443 42.6662 329.387 43.871C328.342 45.0644 326.99 45.9964 325.331 46.6672C323.683 47.3266 321.78 47.6565 319.621 47.6568ZM345.222 47.1408L345.216 12.2317L359.193 12.2292C361.761 12.2287 363.903 12.609 365.619 13.3701C367.335 14.1311 368.625 15.1877 369.489 16.5398C370.353 17.8806 370.785 19.426 370.785 21.176C370.786 22.5396 370.513 23.7385 369.968 24.7727C369.423 25.7955 368.673 26.6366 367.718 27.2958C366.775 27.9437 365.696 28.4042 364.48 28.6771L364.48 29.018C365.809 29.0746 367.054 29.4494 368.213 30.1423C369.384 30.8353 370.333 31.8067 371.06 33.0566C371.788 34.2951 372.152 35.7723 372.152 37.4882C372.152 39.3405 371.692 40.994 370.772 42.4487C369.863 43.892 368.517 45.0343 366.733 45.8756C364.949 46.7168 362.75 47.1376 360.137 47.1381L345.222 47.1408ZM352.601 41.1054L358.619 41.1043C360.675 41.1039 362.175 40.7116 363.118 39.9274C364.061 39.1317 364.533 38.0748 364.532 36.7566C364.532 35.7907 364.299 34.9385 363.833 34.1999C363.367 33.4614 362.702 32.882 361.839 32.4617C360.986 32.0414 359.969 31.8313 358.787 31.8315L352.6 31.8327L352.601 41.1054ZM352.599 26.8384L358.07 26.8374C359.082 26.8372 359.98 26.6609 360.764 26.3085C361.559 25.9447 362.184 25.4332 362.638 24.774C363.104 24.1149 363.337 23.325 363.337 22.4046C363.336 21.1432 362.887 20.1263 361.99 19.3537C361.103 18.5811 359.842 18.195 358.205 18.1953L352.597 18.1963L352.599 26.8384ZM387.552 47.6445C384.859 47.645 382.54 47.1 380.597 46.0094C378.665 44.9075 377.176 43.3509 376.13 41.3398C375.084 39.3172 374.561 36.9253 374.561 34.1639C374.56 31.4707 375.083 29.107 376.128 27.0727C377.173 25.0384 378.644 23.4529 380.542 22.3162C382.45 21.1795 384.689 20.6109 387.257 20.6105C388.984 20.6102 390.592 20.8883 392.081 21.4448C393.581 21.99 394.888 22.8136 396.002 23.9157C397.127 25.0178 398.002 26.404 398.628 28.0743C399.253 29.7333 399.566 31.6764 399.566 33.9037L399.567 35.898L377.459 35.902L377.458 31.402L392.731 31.3992C392.73 30.3538 392.503 29.4277 392.048 28.621C391.594 27.8142 390.963 27.1837 390.156 26.7293C389.36 26.2635 388.434 26.0307 387.377 26.0309C386.275 26.0311 385.298 26.287 384.446 26.7985C383.605 27.2986 382.946 27.9749 382.469 28.8272C381.992 29.6682 381.748 30.6058 381.736 31.6399L381.737 35.9183C381.737 37.2137 381.976 38.333 382.454 39.2761C382.943 40.2192 383.63 40.9464 384.517 41.4576C385.403 41.9688 386.454 42.2242 387.67 42.224C388.477 42.2239 389.216 42.1101 389.886 41.8827C390.556 41.6553 391.13 41.3143 391.607 40.8597C392.085 40.405 392.448 39.8482 392.698 39.189L399.414 39.631C399.073 41.2447 398.375 42.6539 397.318 43.8586C396.273 45.052 394.921 45.9841 393.262 46.6548C391.614 47.3142 389.711 47.6441 387.552 47.6445ZM415.039 47.6395C412.346 47.64 410.028 47.095 408.084 46.0044C406.152 44.9025 404.664 43.3459 403.618 41.3348C402.572 39.3122 402.049 36.9203 402.048 34.1589C402.048 31.4657 402.57 29.102 403.615 27.0677C404.66 25.0334 406.131 23.4479 408.029 22.3112C409.938 21.1745 412.176 20.6059 414.745 20.6055C416.472 20.6052 418.08 20.8833 419.569 21.4398C421.069 21.985 422.376 22.8086 423.49 23.9107C424.615 25.0128 425.49 26.399 426.115 28.0693C426.741 29.7283 427.053 31.6714 427.054 33.8987L427.054 35.893L404.946 35.897L404.945 31.397L420.218 31.3942C420.218 30.3488 419.991 29.4227 419.536 28.616C419.081 27.8092 418.45 27.1787 417.643 26.7243C416.848 26.2585 415.922 26.0257 414.865 26.0259C413.763 26.0261 412.785 26.282 411.933 26.7935C411.092 27.2936 410.433 27.9699 409.956 28.8223C409.479 29.6632 409.235 30.6008 409.224 31.6349L409.225 35.9133C409.225 37.2087 409.464 38.328 409.941 39.2711C410.43 40.2142 411.118 40.9414 412.004 41.4526C412.891 41.9638 413.942 42.2193 415.158 42.219C415.964 42.2189 416.703 42.1051 417.373 41.8777C418.044 41.6503 418.618 41.3093 419.095 40.8547C419.572 40.4 419.936 39.8432 420.185 39.184L426.901 39.626C426.561 41.2397 425.862 42.6489 424.806 43.8536C423.76 45.047 422.408 45.9791 420.749 46.6498C419.102 47.3092 417.198 47.6391 415.039 47.6395ZM437.853 31.9876L437.856 47.124L430.595 47.1253L430.59 20.9435L437.511 20.9422L437.511 25.5616L437.818 25.5615C438.397 24.0387 439.369 22.834 440.732 21.9473C442.096 21.0494 443.749 20.6002 445.692 20.5999C447.511 20.5995 449.096 20.997 450.448 21.7922C451.801 22.5874 452.852 23.7235 453.602 25.2007C454.353 26.6665 454.728 28.4164 454.728 30.4505L454.731 47.1209L447.47 47.1223L447.467 31.7473C447.478 30.145 447.069 28.8951 446.239 27.9975C445.409 27.0885 444.267 26.6342 442.813 26.6345C441.835 26.6346 440.972 26.845 440.222 27.2656C439.483 27.6862 438.904 28.2999 438.484 29.1068C438.075 29.9024 437.865 30.8626 437.853 31.9876ZM469.3 47.1183L469.294 12.2092L492.407 12.205L492.408 18.2902L476.675 18.2931L476.677 26.6113L490.876 26.6087L490.877 32.6939L476.678 32.6965L476.681 47.1169L469.3 47.1183ZM506.052 47.623C503.359 47.6235 501.04 47.0784 499.097 45.9879C497.165 44.886 495.676 43.3294 494.63 41.3182C493.584 39.2957 493.061 36.9037 493.061 34.1424C493.06 31.4492 493.583 29.0855 494.628 27.0512C495.673 25.0169 497.144 23.4314 499.042 22.2947C500.95 21.158 503.189 20.5894 505.757 20.5889C507.484 20.5886 509.092 20.8667 510.581 21.4233C512.081 21.9685 513.388 22.7921 514.502 23.8942C515.627 24.9962 516.502 26.3824 517.128 28.0528C517.753 29.7118 518.066 31.6549 518.066 33.8822L518.067 35.8765L495.959 35.8805L495.958 31.3805L511.231 31.3777C511.23 30.3323 511.003 29.4062 510.548 28.5994C510.094 27.7927 509.463 27.1621 508.656 26.7077C507.86 26.242 506.934 26.0092 505.877 26.0094C504.775 26.0096 503.798 26.2654 502.946 26.7769C502.105 27.2771 501.446 27.9534 500.969 28.8057C500.492 29.6467 500.248 30.5843 500.236 31.6183L500.237 35.8968C500.237 37.1922 500.476 38.3115 500.954 39.2546C501.442 40.1977 502.13 40.9248 503.017 41.436C503.903 41.9472 504.954 42.2027 506.17 42.2025C506.977 42.2024 507.716 42.0886 508.386 41.8612C509.056 41.6338 509.63 41.2928 510.107 40.8381C510.585 40.3835 510.948 39.8266 511.198 39.1675L517.914 39.6095C517.573 41.2232 516.875 42.6324 515.818 43.8371C514.773 45.0305 513.421 45.9625 511.762 46.6333C510.114 47.2927 508.211 47.6226 506.052 47.623ZM529.073 47.6017C527.403 47.6021 525.914 47.3125 524.607 46.7332C523.3 46.1426 522.266 45.2734 521.505 44.1258C520.754 42.9669 520.379 41.5238 520.379 39.7965C520.379 38.342 520.645 37.1203 521.179 36.1316C521.713 35.1429 522.44 34.3473 523.361 33.7448C524.281 33.1424 525.326 32.6877 526.497 32.3806C527.679 32.0736 528.917 31.8575 530.213 31.7322C531.735 31.5729 532.962 31.4249 533.894 31.2884C534.826 31.1405 535.502 30.9244 535.923 30.6403C536.343 30.3561 536.553 29.9356 536.553 29.3788L536.553 29.2765C536.553 28.197 536.212 27.3618 535.53 26.771C534.859 26.1802 533.905 25.885 532.666 25.8852C531.359 25.8854 530.319 26.1754 529.547 26.7551C528.774 27.3234 528.263 28.0394 528.013 28.9031L521.297 28.3588C521.638 26.7679 522.308 25.3927 523.308 24.2335C524.308 23.0628 525.597 22.1649 527.177 21.5396C528.767 20.9029 530.608 20.5844 532.699 20.584C534.154 20.5838 535.546 20.754 536.875 21.0946C538.216 21.4353 539.404 21.9635 540.438 22.6792C541.484 23.3949 542.308 24.3153 542.91 25.4401C543.513 26.5537 543.814 27.8888 543.814 29.4457L543.818 47.1048L536.931 47.106L536.931 43.4753L536.726 43.4754C536.306 44.2936 535.743 45.0153 535.039 45.6404C534.334 46.2542 533.488 46.7373 532.499 47.0898C531.511 47.4309 530.369 47.6015 529.073 47.6017ZM531.152 42.59C532.22 42.5898 533.163 42.3794 533.981 41.9588C534.8 41.5268 535.441 40.9472 535.907 40.2198C536.373 39.4925 536.606 38.6686 536.606 37.7481L536.605 34.9697C536.378 35.1175 536.065 35.2539 535.668 35.379C535.281 35.4927 534.844 35.6007 534.355 35.7031C533.867 35.7941 533.378 35.8794 532.889 35.959C532.401 36.0273 531.958 36.0899 531.56 36.1468C530.708 36.2719 529.963 36.4709 529.327 36.7437C528.691 37.0166 528.197 37.386 527.844 37.852C527.492 38.3066 527.316 38.8748 527.316 39.5566C527.316 40.5452 527.675 41.3009 528.391 41.8235C529.118 42.3347 530.038 42.5902 531.152 42.59ZM562.172 20.9196L562.173 26.3741L546.406 26.377L546.405 20.9225L562.172 20.9196ZM549.984 14.6491L557.245 14.6478L557.25 39.0569C557.25 39.7273 557.352 40.25 557.557 40.625C557.761 40.9886 558.046 41.2442 558.409 41.3919C558.784 41.5395 559.216 41.6133 559.705 41.6132C560.046 41.6132 560.386 41.5847 560.727 41.5278C561.068 41.4596 561.33 41.4084 561.511 41.3743L562.654 46.7775C562.291 46.8912 561.78 47.0219 561.12 47.1698C560.461 47.329 559.66 47.4257 558.717 47.46C556.967 47.5285 555.433 47.2958 554.115 46.762C552.808 46.2281 551.791 45.3988 551.063 44.2739C550.336 43.149 549.977 41.7286 549.988 40.0127L549.984 14.6491ZM582.495 35.95L582.492 20.9159L589.754 20.9146L589.758 47.0964L582.787 47.0977L582.786 42.342L582.513 42.342C581.923 43.8762 580.94 45.1094 579.565 46.0414C578.202 46.9735 576.537 47.4397 574.571 47.4401C572.821 47.4404 571.281 47.0429 569.952 46.2477C568.622 45.4525 567.582 44.322 566.832 42.8563C566.093 41.3905 565.717 39.6349 565.706 37.5894L565.703 20.919L572.964 20.9176L572.967 36.2926C572.978 37.8381 573.393 39.0596 574.212 39.9572C575.03 40.8548 576.127 41.3034 577.502 41.3032C578.377 41.303 579.195 41.104 579.956 40.7061C580.717 40.2969 581.331 39.6945 581.797 38.899C582.274 38.1034 582.507 37.1204 582.495 35.95ZM594.367 47.0956L594.362 20.9138L601.402 20.9125L601.403 25.4807L601.675 25.4806C602.152 23.8555 602.953 22.6281 604.078 21.7984C605.203 20.9572 606.498 20.5365 607.964 20.5363C608.328 20.5362 608.72 20.5589 609.14 20.6042C609.561 20.6496 609.93 20.7121 610.248 20.7915L610.25 27.2347C609.909 27.1325 609.437 27.0417 608.835 26.9623C608.232 26.8828 607.681 26.8431 607.181 26.8432C606.113 26.8434 605.159 27.0766 604.318 27.5426C603.488 27.9973 602.829 28.6338 602.341 29.4521C601.864 30.2703 601.625 31.2136 601.625 32.2817L601.628 47.0942L594.367 47.0956ZM623.521 47.6016C620.827 47.6021 618.509 47.0571 616.566 45.9665C614.634 44.8646 613.145 43.3081 612.099 41.2969C611.053 39.2744 610.53 36.8824 610.529 34.121C610.529 31.4279 611.051 29.0641 612.096 27.0298C613.141 24.9956 614.613 23.4101 616.51 22.2734C618.419 21.1367 620.658 20.5681 623.226 20.5676C624.953 20.5673 626.561 20.8454 628.05 21.4019C629.55 21.9471 630.857 22.7708 631.971 23.8728C633.096 24.9749 633.971 26.3611 634.597 28.0314C635.222 29.6904 635.535 31.6335 635.535 33.8608L635.535 35.8551L613.428 35.8592L613.427 31.3592L628.699 31.3564C628.699 30.3109 628.472 29.3848 628.017 28.5781C627.562 27.7714 626.932 27.1408 626.125 26.6864C625.329 26.2206 624.403 25.9878 623.346 25.988C622.244 25.9882 621.267 26.2441 620.414 26.7556C619.574 27.2558 618.915 27.932 618.438 28.7844C617.96 29.6254 617.716 30.5629 617.705 31.597L617.706 35.8754C617.706 37.1709 617.945 38.2901 618.422 39.2332C618.911 40.1763 619.599 40.9035 620.485 41.4147C621.372 41.9259 622.423 42.1814 623.639 42.1812C624.446 42.181 625.184 42.0672 625.855 41.8398C626.525 41.6125 627.099 41.2714 627.576 40.8168C628.053 40.3622 628.417 39.8053 628.667 39.1462L635.383 39.5881C635.042 41.2018 634.344 42.611 633.287 43.8158C632.242 45.0091 630.89 45.9412 629.231 46.612C627.583 47.2714 625.68 47.6012 623.521 47.6016ZM648.724 47.5118C646.735 47.5122 644.934 47.0012 643.32 45.9787C641.718 44.9449 640.445 43.4281 639.501 41.4283C638.569 39.4171 638.103 36.9513 638.102 34.0308C638.102 31.0308 638.584 28.5364 639.55 26.5476C640.515 24.5474 641.799 23.0529 643.401 22.0639C645.015 21.0636 646.782 20.5633 648.702 20.563C650.168 20.5627 651.39 20.8125 652.367 21.3123C653.356 21.8008 654.151 22.4143 654.754 23.1528C655.367 23.8799 655.833 24.5958 656.152 25.3003L656.373 25.3002L656.371 12.1752L663.615 12.1739L663.622 47.083L656.462 47.0843L656.462 42.8911L656.155 42.8912C655.814 43.6185 655.331 44.3402 654.706 45.0562C654.093 45.7609 653.292 46.3462 652.303 46.8123C651.326 47.2784 650.133 47.5116 648.724 47.5118ZM651.024 41.733C652.194 41.7328 653.183 41.4144 653.99 40.7779C654.808 40.13 655.433 39.2265 655.864 38.0673C656.307 36.9082 656.529 35.5502 656.528 33.9934C656.528 32.4365 656.312 31.0843 655.88 29.9367C655.448 28.789 654.823 27.9028 654.004 27.2779C653.186 26.6531 652.192 26.3407 651.021 26.341C649.828 26.3412 648.822 26.6652 648.004 27.3131C647.186 27.961 646.567 28.8588 646.147 30.0066C645.727 31.1544 645.517 32.484 645.517 33.9954C645.517 35.5181 645.728 36.8646 646.148 38.035C646.58 39.194 647.2 40.103 648.007 40.762C648.825 41.4095 649.831 41.7332 651.024 41.733Z" fill="#133F7D"/>
<path d="M133.952 82.6338C133.953 84.0144 133.703 85.2077 133.205 86.2134C132.707 87.2192 132.023 87.9949 131.154 88.5405C130.284 89.0861 129.292 89.359 128.175 89.3592C127.059 89.3594 126.066 89.0869 125.196 88.5416C124.327 87.9963 123.643 87.2209 123.144 86.2153C122.645 85.2097 122.396 84.0165 122.395 82.6359C122.395 81.2552 122.644 80.0619 123.143 79.0562C123.641 78.0504 124.325 77.2747 125.194 76.7291C126.063 76.1835 127.056 75.9106 128.173 75.9104C129.289 75.9102 130.282 76.1827 131.151 76.728C132.021 77.2733 132.705 78.0488 133.204 79.0543C133.703 80.0599 133.952 81.2531 133.952 82.6338ZM132.418 82.634C132.418 81.5005 132.228 80.5439 131.849 79.7641C131.474 78.9844 130.964 78.3942 130.321 77.9938C129.681 77.5933 128.966 77.3932 128.173 77.3933C127.38 77.3935 126.662 77.5939 126.019 77.9946C125.38 78.3953 124.871 78.9856 124.492 79.7654C124.117 80.5453 123.929 81.5021 123.93 82.6356C123.93 83.7691 124.117 84.7257 124.493 85.5055C124.872 86.2853 125.381 86.8754 126.021 87.2758C126.664 87.6763 127.382 87.8764 128.175 87.8763C128.967 87.8761 129.683 87.6757 130.322 87.275C130.966 86.8744 131.475 86.2841 131.85 85.5042C132.229 84.7243 132.418 83.7676 132.418 82.634ZM142.601 85.1634L142.6 79.3595L144.109 79.3592L144.11 89.1774L142.602 89.1776L142.602 87.5157L142.499 87.5157C142.269 88.0143 141.911 88.4384 141.426 88.7879C140.94 89.1332 140.326 89.3059 139.585 89.306C138.971 89.3061 138.426 89.172 137.948 88.9036C137.471 88.631 137.096 88.222 136.823 87.6766C136.55 87.1269 136.414 86.4344 136.414 85.5992L136.413 79.3606L137.921 79.3603L137.922 85.4967C137.922 86.2126 138.123 86.7836 138.523 87.2096C138.928 87.6357 139.444 87.8487 140.07 87.8486C140.445 87.8485 140.827 87.7525 141.215 87.5607C141.607 87.3689 141.935 87.0748 142.199 86.6784C142.467 86.2821 142.601 85.7771 142.601 85.1634ZM146.873 89.1769L146.872 79.3587L148.329 79.3584L148.329 80.8414L148.432 80.8414C148.61 80.3555 148.934 79.9613 149.403 79.6586C149.872 79.356 150.4 79.2046 150.988 79.2045C151.099 79.2045 151.237 79.2066 151.404 79.2108C151.57 79.2151 151.695 79.2214 151.781 79.23L151.781 80.764C151.73 80.7513 151.613 80.7321 151.429 80.7066C151.25 80.6768 151.061 80.6619 150.86 80.6619C150.383 80.662 149.957 80.7622 149.582 80.9626C149.211 81.1587 148.917 81.4315 148.7 81.7809C148.487 82.1261 148.381 82.5203 148.381 82.9635L148.382 89.1766L146.873 89.1769ZM165.586 81.5541L164.231 81.9379C164.146 81.7121 164.02 81.4926 163.854 81.2796C163.692 81.0623 163.47 80.8834 163.189 80.7428C162.908 80.6022 162.548 80.532 162.109 80.5321C161.508 80.5322 161.007 80.6707 160.607 80.9478C160.211 81.2206 160.012 81.5679 160.013 81.9898C160.013 82.3648 160.149 82.661 160.422 82.8782C160.695 83.0955 161.121 83.2766 161.7 83.4213L163.158 83.779C164.036 83.9919 164.69 84.3178 165.12 84.7566C165.551 85.1912 165.766 85.7516 165.766 86.4376C165.766 87.0001 165.604 87.503 165.281 87.9462C164.961 88.3895 164.514 88.739 163.939 88.9948C163.363 89.2506 162.694 89.3785 161.931 89.3787C160.93 89.3789 160.101 89.1617 159.445 88.7271C158.789 88.2926 158.373 87.6577 158.198 86.8225L159.63 86.4643C159.766 86.9927 160.024 87.389 160.403 87.6531C160.787 87.9172 161.288 88.0492 161.906 88.0491C162.609 88.049 163.167 87.8998 163.58 87.6014C163.998 87.2988 164.207 86.9365 164.207 86.5146C164.206 86.1737 164.087 85.8882 163.848 85.6582C163.61 85.4238 163.243 85.2492 162.749 85.1342L161.112 84.751C160.213 84.5381 159.553 84.2079 159.131 83.7606C158.713 83.3089 158.504 82.7444 158.504 82.0668C158.504 81.5128 158.659 81.0227 158.97 80.5965C159.286 80.1703 159.714 79.8358 160.255 79.5928C160.8 79.3498 161.418 79.2282 162.109 79.2281C163.08 79.2279 163.843 79.4408 164.397 79.8669C164.955 80.2929 165.352 80.8553 165.586 81.5541ZM174.224 85.1577L174.223 79.3537L175.732 79.3534L175.733 89.1716L174.225 89.1719L174.225 87.51L174.122 87.51C173.892 88.0086 173.534 88.4327 173.049 88.7822C172.563 89.1275 171.949 89.3002 171.208 89.3003C170.594 89.3004 170.049 89.1663 169.571 88.8979C169.094 88.6252 168.719 88.2162 168.446 87.6708C168.173 87.1211 168.037 86.4287 168.037 85.5935L168.036 79.3548L169.544 79.3546L169.545 85.4909C169.545 86.2068 169.746 86.7778 170.146 87.2039C170.551 87.63 171.067 87.8429 171.693 87.8428C172.068 87.8427 172.45 87.7468 172.838 87.555C173.23 87.3631 173.558 87.069 173.822 86.6727C174.09 86.2763 174.224 85.7713 174.224 85.1577ZM182.485 89.3749C181.565 89.3751 180.772 89.1579 180.107 88.7234C179.442 88.2888 178.931 87.6902 178.573 86.9275C178.215 86.1648 178.035 85.2934 178.035 84.3132C178.035 83.3161 178.218 82.4361 178.585 81.6732C178.955 80.9061 179.471 80.3073 180.131 79.8768C180.796 79.442 181.571 79.2245 182.458 79.2244C183.148 79.2243 183.77 79.352 184.324 79.6076C184.878 79.8631 185.332 80.221 185.686 80.6812C186.04 81.1413 186.259 81.6782 186.345 82.2919L184.836 82.2921C184.721 81.8447 184.465 81.4484 184.069 81.1033C183.677 80.754 183.148 80.5794 182.484 80.5795C181.895 80.5796 181.38 80.7331 180.937 81.04C180.498 81.3426 180.155 81.771 179.908 82.325C179.665 82.8747 179.544 83.5204 179.544 84.2618C179.544 85.0204 179.663 85.6809 179.902 86.2433C180.145 86.8058 180.486 87.2425 180.925 87.5535C181.368 87.8645 181.888 88.0199 182.485 88.0198C182.877 88.0198 183.233 87.9515 183.552 87.8151C183.872 87.6787 184.142 87.4826 184.364 87.2269C184.586 86.9712 184.743 86.6643 184.837 86.3063L186.345 86.3061C186.26 86.8856 186.049 87.4077 185.713 87.8722C185.381 88.3325 184.94 88.6991 184.39 88.9719C183.844 89.2405 183.21 89.3748 182.485 89.3749ZM192.54 89.3731C191.619 89.3733 190.827 89.1561 190.162 88.7216C189.497 88.287 188.986 87.6884 188.627 86.9257C188.269 86.163 188.09 85.2915 188.09 84.3114C188.09 83.3143 188.273 82.4343 188.639 81.6714C189.01 80.9043 189.525 80.3055 190.186 79.875C190.85 79.4402 191.626 79.2227 192.512 79.2226C193.203 79.2224 193.825 79.3502 194.379 79.6057C194.933 79.8613 195.387 80.2192 195.741 80.6794C196.094 81.1395 196.314 81.6764 196.399 82.29L194.891 82.2903C194.776 81.8429 194.52 81.4466 194.124 81.1015C193.731 80.7522 193.203 80.5775 192.538 80.5777C191.95 80.5778 191.435 80.7313 190.991 81.0382C190.553 81.3408 190.21 81.7691 189.963 82.3232C189.72 82.8729 189.598 83.5185 189.599 84.26C189.599 85.0185 189.718 85.679 189.957 86.2415C190.2 86.8039 190.541 87.2407 190.98 87.5517C191.423 87.8627 191.943 88.0181 192.54 88.018C192.932 88.0179 193.287 87.9497 193.607 87.8133C193.927 87.6768 194.197 87.4808 194.419 87.225C194.64 86.9693 194.798 86.6625 194.892 86.3045L196.4 86.3042C196.315 86.8838 196.104 87.4058 195.767 87.8704C195.435 88.3307 194.994 88.6972 194.445 88.9701C193.899 89.2386 193.264 89.373 192.54 89.3731ZM202.722 89.3713C201.776 89.3714 200.96 89.1628 200.274 88.7453C199.592 88.3235 199.066 87.7356 198.695 86.9814C198.328 86.2229 198.145 85.3408 198.145 84.3352C198.145 83.3295 198.328 82.4431 198.694 81.676C199.065 80.9046 199.58 80.3037 200.24 79.8731C200.905 79.4384 201.681 79.2209 202.567 79.2207C203.078 79.2206 203.583 79.3058 204.082 79.4761C204.581 79.6465 205.035 79.9234 205.444 80.3069C205.853 80.686 206.179 81.1888 206.422 81.8152C206.665 82.4416 206.787 83.2129 206.787 84.129L206.787 84.7683L199.219 84.7696L199.218 83.4657L205.252 83.4646C205.252 82.9106 205.142 82.4163 204.92 81.9817C204.702 81.547 204.391 81.2041 203.986 80.9527C203.586 80.7014 203.113 80.5757 202.567 80.5758C201.966 80.5759 201.447 80.7252 201.008 81.0236C200.573 81.3177 200.239 81.7013 200.004 82.1743C199.77 82.6474 199.653 83.1545 199.653 83.6957L199.653 84.565C199.653 85.3065 199.781 85.935 200.037 86.4506C200.297 86.9619 200.657 87.3518 201.118 87.6201C201.578 87.8843 202.113 88.0163 202.722 88.0162C203.118 88.0161 203.476 87.9606 203.796 87.8498C204.12 87.7346 204.399 87.5641 204.633 87.3382C204.867 87.1081 205.049 86.8225 205.176 86.4816L206.634 86.8904C206.48 87.3848 206.223 87.8195 205.861 88.1946C205.498 88.5654 205.051 88.8552 204.518 89.0641C203.986 89.2688 203.387 89.3711 202.722 89.3713ZM216.036 81.545L214.68 81.9288C214.595 81.7029 214.469 81.4835 214.303 81.2704C214.141 81.0531 213.92 80.8742 213.638 80.7336C213.357 80.5931 212.997 80.5228 212.558 80.5229C211.957 80.523 211.457 80.6616 211.056 80.9386C210.66 81.2114 210.462 81.5588 210.462 81.9807C210.462 82.3557 210.598 82.6518 210.871 82.8691C211.144 83.0864 211.57 83.2674 212.149 83.4122L213.607 83.7699C214.485 83.9828 215.139 84.3086 215.569 84.7475C216 85.1821 216.215 85.7424 216.215 86.4285C216.215 86.991 216.054 87.4938 215.73 87.9371C215.41 88.3803 214.963 88.7298 214.388 88.9856C213.812 89.2414 213.143 89.3694 212.381 89.3695C211.379 89.3697 210.55 89.1525 209.894 88.718C209.238 88.2834 208.822 87.6486 208.647 86.8134L210.079 86.4552C210.215 86.9835 210.473 87.3798 210.853 87.6439C211.236 87.9081 211.737 88.0401 212.355 88.04C213.058 88.0398 213.616 87.8906 214.03 87.5922C214.447 87.2896 214.656 86.9273 214.656 86.5055C214.656 86.1646 214.536 85.8791 214.298 85.649C214.059 85.4147 213.692 85.24 213.198 85.125L211.562 84.7418C210.662 84.5289 210.002 84.1988 209.58 83.7514C209.162 83.2998 208.953 82.7352 208.953 82.0576C208.953 81.5037 209.109 81.0136 209.42 80.5874C209.735 80.1612 210.163 79.8266 210.704 79.5836C211.25 79.3406 211.867 79.219 212.558 79.2189C213.529 79.2187 214.292 79.4317 214.846 79.8577C215.405 80.2837 215.801 80.8462 216.036 81.545ZM225.44 81.5433L224.085 81.927C224 81.7012 223.874 81.4818 223.708 81.2687C223.546 81.0514 223.324 80.8725 223.043 80.7319C222.761 80.5913 222.401 80.5211 221.962 80.5212C221.362 80.5213 220.861 80.6599 220.46 80.9369C220.064 81.2097 219.866 81.5571 219.866 81.9789C219.866 82.3539 220.003 82.6501 220.275 82.8674C220.548 83.0846 220.974 83.2657 221.554 83.4105L223.011 83.7681C223.889 83.9811 224.543 84.3069 224.974 84.7458C225.404 85.1804 225.62 85.7407 225.62 86.4268C225.62 86.9893 225.458 87.4921 225.134 87.9354C224.815 88.3786 224.367 88.7281 223.792 88.9839C223.217 89.2397 222.548 89.3677 221.785 89.3678C220.784 89.368 219.955 89.1508 219.298 88.7163C218.642 88.2817 218.226 87.6469 218.052 86.8117L219.483 86.4534C219.62 86.9818 219.878 87.3781 220.257 87.6422C220.641 87.9064 221.141 88.0384 221.759 88.0383C222.462 88.0381 223.021 87.8889 223.434 87.5905C223.851 87.2879 224.06 86.9256 224.06 86.5038C224.06 86.1628 223.941 85.8774 223.702 85.6473C223.463 85.413 223.097 85.2383 222.602 85.1233L220.966 84.7401C220.067 84.5272 219.406 84.1971 218.984 83.7497C218.567 83.2981 218.358 82.7335 218.358 82.0559C218.357 81.5019 218.513 81.0119 218.824 80.5857C219.139 80.1595 219.567 79.8249 220.108 79.5819C220.654 79.3389 221.272 79.2173 221.962 79.2172C222.934 79.217 223.697 79.43 224.251 79.856C224.809 80.282 225.205 80.8445 225.44 81.5433ZM239.907 81.5406L238.552 81.9244C238.466 81.6986 238.341 81.4791 238.174 81.2661C238.012 81.0488 237.791 80.8699 237.509 80.7293C237.228 80.5887 236.868 80.5185 236.429 80.5186C235.828 80.5187 235.328 80.6572 234.927 80.9343C234.531 81.2071 234.333 81.5544 234.333 81.9763C234.333 82.3513 234.469 82.6475 234.742 82.8647C235.015 83.082 235.441 83.263 236.021 83.4078L237.478 83.7655C238.356 83.9784 239.01 84.3043 239.441 84.7431C239.871 85.1777 240.086 85.7381 240.086 86.4241C240.087 86.9866 239.925 87.4895 239.601 87.9327C239.281 88.376 238.834 88.7255 238.259 88.9813C237.684 89.2371 237.015 89.365 236.252 89.3652C235.25 89.3654 234.421 89.1482 233.765 88.7136C233.109 88.2791 232.693 87.6442 232.518 86.809L233.95 86.4508C234.087 86.9792 234.344 87.3755 234.724 87.6396C235.107 87.9037 235.608 88.0357 236.226 88.0356C236.929 88.0355 237.487 87.8863 237.901 87.5879C238.318 87.2853 238.527 86.923 238.527 86.5011C238.527 86.1602 238.407 85.8747 238.169 85.6447C237.93 85.4103 237.564 85.2357 237.069 85.1207L235.433 84.7375C234.534 84.5246 233.873 84.1944 233.451 83.7471C233.033 83.2954 232.824 82.7309 232.824 82.0533C232.824 81.4993 232.98 81.0092 233.291 80.583C233.606 80.1568 234.034 79.8223 234.575 79.5793C235.121 79.3363 235.739 79.2147 236.429 79.2146C237.401 79.2144 238.163 79.4273 238.717 79.8534C239.276 80.2794 239.672 80.8418 239.907 81.5406ZM246.626 79.3406L246.626 80.619L241.538 80.6199L241.538 79.3415L246.626 79.3406ZM243.02 76.9889L244.529 76.9887L244.531 86.3466C244.531 86.7728 244.592 87.0924 244.716 87.3054C244.844 87.5142 245.006 87.6548 245.202 87.7272C245.402 87.7953 245.613 87.8294 245.835 87.8293C246.001 87.8293 246.137 87.8208 246.244 87.8037C246.35 87.7824 246.436 87.7653 246.5 87.7525L246.807 89.1076C246.704 89.1459 246.562 89.1843 246.378 89.2227C246.195 89.2654 245.963 89.2867 245.682 89.2868C245.255 89.2868 244.838 89.1953 244.429 89.0121C244.024 88.829 243.687 88.5499 243.419 88.175C243.154 87.8 243.022 87.327 243.022 86.756L243.02 76.9889ZM252.78 89.3622C251.894 89.3623 251.116 89.1515 250.447 88.7298C249.782 88.308 249.262 87.7179 248.887 86.9595C248.516 86.201 248.33 85.3147 248.33 84.3005C248.33 83.2778 248.515 82.385 248.886 81.6221C249.261 80.8593 249.78 80.2668 250.445 79.8448C251.114 79.4228 251.892 79.2118 252.778 79.2116C253.665 79.2114 254.44 79.4222 255.105 79.844C255.774 80.2657 256.294 80.858 256.665 81.6207C257.04 82.3834 257.228 83.2761 257.228 84.2989C257.228 85.3131 257.041 86.1995 256.666 86.9581C256.295 87.7166 255.776 88.3069 255.107 88.7289C254.442 89.1509 253.666 89.362 252.78 89.3622ZM252.78 88.0071C253.453 88.0069 254.007 87.8342 254.442 87.489C254.876 87.1438 255.198 86.6899 255.407 86.1273C255.615 85.5648 255.72 84.9554 255.719 84.2991C255.719 83.6429 255.615 83.0314 255.406 82.4647C255.197 81.898 254.875 81.4399 254.44 81.0906C254.006 80.7412 253.452 80.5666 252.778 80.5667C252.105 80.5668 251.551 80.7417 251.117 81.0912C250.682 81.4407 250.36 81.8988 250.152 82.4656C249.943 83.0324 249.839 83.644 249.839 84.3002C249.839 84.9565 249.943 85.5658 250.152 86.1283C250.361 86.6907 250.683 87.1445 251.118 87.4896C251.552 87.8347 252.106 88.0072 252.78 88.0071ZM259.532 89.1564L259.53 79.3382L260.987 79.338L260.987 80.8209L261.09 80.8209C261.269 80.3351 261.592 79.9408 262.061 79.6382C262.53 79.3355 263.058 79.1842 263.646 79.1841C263.757 79.184 263.896 79.1861 264.062 79.1904C264.228 79.1946 264.354 79.201 264.439 79.2095L264.439 80.7436C264.388 80.7308 264.271 80.7116 264.088 80.6861C263.909 80.6563 263.719 80.6414 263.519 80.6415C263.041 80.6416 262.615 80.7418 262.24 80.9421C261.87 81.1382 261.576 81.411 261.358 81.7605C261.145 82.1057 261.039 82.4999 261.039 82.9431L261.04 89.1561L259.532 89.1564ZM266.229 89.1552L266.227 79.337L267.736 79.3367L267.737 89.1549L266.229 89.1552ZM266.994 77.7005C266.7 77.7006 266.446 77.6005 266.233 77.4002C266.024 77.2 265.92 76.9592 265.92 76.678C265.92 76.3967 266.024 76.1559 266.233 75.9556C266.446 75.7553 266.699 75.6551 266.993 75.655C267.287 75.655 267.539 75.7551 267.748 75.9553C267.961 76.1556 268.067 76.3963 268.067 76.6776C268.068 76.9588 267.961 77.1996 267.748 77.3999C267.539 77.6003 267.288 77.7004 266.994 77.7005ZM274.617 89.3582C273.671 89.3584 272.855 89.1497 272.169 88.7322C271.487 88.3105 270.96 87.7225 270.589 86.9683C270.223 86.2099 270.039 85.3278 270.039 84.3221C270.039 83.3164 270.222 82.43 270.588 81.6629C270.959 80.8915 271.475 80.2906 272.135 79.8601C272.8 79.4253 273.575 79.2078 274.462 79.2077C274.973 79.2076 275.478 79.2927 275.977 79.4631C276.475 79.6334 276.929 79.9103 277.338 80.2938C277.747 80.673 278.073 81.1758 278.316 81.8021C278.559 82.4285 278.681 83.1998 278.681 84.116L278.681 84.7552L271.113 84.7566L271.113 83.4526L277.147 83.4515C277.147 82.8975 277.036 82.4032 276.814 81.9686C276.597 81.534 276.286 81.191 275.881 80.9397C275.48 80.6883 275.007 80.5627 274.462 80.5628C273.861 80.5629 273.341 80.7121 272.902 81.0105C272.468 81.3046 272.133 81.6882 271.899 82.1613C271.665 82.6343 271.548 83.1414 271.548 83.6826L271.548 84.5519C271.548 85.2934 271.676 85.9219 271.932 86.4375C272.192 86.9488 272.552 87.3387 273.012 87.6071C273.472 87.8712 274.007 88.0032 274.617 88.0031C275.013 88.003 275.371 87.9476 275.69 87.8367C276.014 87.7216 276.293 87.5511 276.528 87.3252C276.762 87.095 276.943 86.8095 277.071 86.4686L278.528 86.8774C278.375 87.3717 278.117 87.8064 277.755 88.1815C277.393 88.5523 276.946 88.8422 276.413 89.0511C275.88 89.2557 275.282 89.3581 274.617 89.3582ZM287.93 81.5319L286.575 81.9157C286.49 81.6899 286.364 81.4704 286.198 81.2574C286.036 81.0401 285.814 80.8611 285.533 80.7206C285.252 80.58 284.892 80.5097 284.453 80.5098C283.852 80.5099 283.351 80.6485 282.951 80.9256C282.554 81.1984 282.356 81.5457 282.356 81.9676C282.356 82.3426 282.493 82.6387 282.766 82.856C283.038 83.0733 283.464 83.2543 284.044 83.3991L285.501 83.7568C286.379 83.9697 287.034 84.2956 287.464 84.7344C287.894 85.169 288.11 85.7293 288.11 86.4154C288.11 86.9779 287.948 87.4808 287.624 87.924C287.305 88.3673 286.857 88.7168 286.282 88.9726C285.707 89.2283 285.038 89.3563 284.275 89.3564C283.274 89.3566 282.445 89.1395 281.789 88.7049C281.132 88.2704 280.717 87.6355 280.542 86.8003L281.974 86.4421C282.11 86.9705 282.368 87.3667 282.747 87.6309C283.131 87.895 283.632 88.027 284.249 88.0269C284.953 88.0268 285.511 87.8775 285.924 87.5792C286.342 87.2765 286.55 86.9143 286.55 86.4924C286.55 86.1515 286.431 85.866 286.192 85.6359C285.953 85.4016 285.587 85.227 285.093 85.112L283.456 84.7288C282.557 84.5159 281.896 84.1857 281.474 83.7384C281.057 83.2867 280.848 82.7221 280.848 82.0446C280.848 81.4906 281.003 81.0005 281.314 80.5743C281.629 80.1481 282.058 79.8135 282.599 79.5705C283.144 79.3275 283.762 79.206 284.452 79.2058C285.424 79.2057 286.187 79.4186 286.741 79.8446C287.299 80.2707 287.696 80.8331 287.93 81.5319ZM299.814 79.3309L299.814 80.6093L294.522 80.6103L294.521 79.3319L299.814 79.3309ZM296.108 89.1498L296.106 77.9765C296.106 77.414 296.238 76.9452 296.502 76.5701C296.767 76.1951 297.11 75.9138 297.531 75.7262C297.953 75.5386 298.399 75.4448 298.867 75.4447C299.238 75.4446 299.541 75.4744 299.775 75.534C300.009 75.5936 300.184 75.649 300.299 75.7001L299.865 77.0042C299.788 76.9786 299.682 76.9467 299.545 76.9084C299.413 76.87 299.238 76.8509 299.021 76.8509C298.522 76.851 298.162 76.9768 297.941 77.2283C297.724 77.4797 297.615 77.8483 297.615 78.3341L297.617 89.1495L296.108 89.1498ZM305.642 89.3526C304.696 89.3527 303.88 89.1441 303.194 88.7266C302.512 88.3048 301.986 87.7169 301.615 86.9627C301.248 86.2042 301.065 85.3221 301.065 84.3165C301.064 83.3108 301.248 82.4244 301.614 81.6573C301.984 80.8859 302.5 80.285 303.16 79.8544C303.825 79.4197 304.601 79.2022 305.487 79.202C305.998 79.2019 306.503 79.2871 307.002 79.4574C307.501 79.6278 307.954 79.9047 308.364 80.2882C308.773 80.6673 309.099 81.1701 309.342 81.7965C309.585 82.4229 309.706 83.1942 309.707 84.1104L309.707 84.7496L302.139 84.7509L302.138 83.447L308.172 83.4459C308.172 82.8919 308.061 82.3976 307.84 81.963C307.622 81.5283 307.311 81.1854 306.906 80.934C306.506 80.6827 306.033 80.557 305.487 80.5571C304.886 80.5573 304.367 80.7065 303.928 81.0049C303.493 81.299 303.159 81.6826 302.924 82.1556C302.69 82.6287 302.573 83.1358 302.573 83.677L302.573 84.5463C302.573 85.2878 302.701 85.9163 302.957 86.4319C303.217 86.9432 303.577 87.3331 304.038 87.6014C304.498 87.8656 305.033 87.9976 305.642 87.9975C306.038 87.9974 306.396 87.9419 306.716 87.8311C307.04 87.716 307.319 87.5454 307.553 87.3196C307.787 87.0894 307.968 86.8038 308.096 86.4629L309.554 86.8717C309.4 87.3661 309.143 87.8008 308.781 88.1759C308.418 88.5467 307.971 88.8365 307.438 89.0454C306.906 89.2501 306.307 89.3524 305.642 89.3526ZM314.892 89.3765C314.269 89.3766 313.705 89.2595 313.198 89.0252C312.69 88.7867 312.288 88.4437 311.989 87.9963C311.691 87.5447 311.542 86.9992 311.542 86.36C311.541 85.7975 311.652 85.3415 311.874 84.9921C312.095 84.6383 312.391 84.3613 312.762 84.1609C313.133 83.9606 313.542 83.8114 313.989 83.7133C314.441 83.6109 314.895 83.5299 315.351 83.4701C315.947 83.3933 316.431 83.3357 316.802 83.2973C317.177 83.2546 317.449 83.1842 317.62 83.0862C317.794 82.9881 317.882 82.8177 317.882 82.5748L317.882 82.5236C317.882 81.893 317.709 81.4029 317.364 81.0536C317.023 80.7042 316.505 80.5296 315.81 80.5297C315.09 80.5298 314.526 80.6876 314.117 81.003C313.708 81.3184 313.42 81.6551 313.254 82.0131L311.822 81.502C312.077 80.9054 312.418 80.4408 312.844 80.1084C313.275 79.7716 313.743 79.5372 314.251 79.405C314.762 79.2685 315.265 79.2003 315.759 79.2002C316.074 79.2001 316.437 79.2384 316.846 79.315C317.259 79.3874 317.657 79.5386 318.041 79.7686C318.429 79.9987 318.751 80.3459 319.006 80.8104C319.262 81.2748 319.39 81.8969 319.39 82.6768L319.391 89.1455L317.883 89.1458L317.883 87.8163L317.806 87.8163C317.704 88.0294 317.533 88.2574 317.295 88.5003C317.056 88.7433 316.739 88.95 316.342 89.1205C315.946 89.291 315.463 89.3764 314.892 89.3765ZM315.121 88.0213C315.718 88.0212 316.221 87.9039 316.63 87.6695C317.043 87.435 317.354 87.1324 317.563 86.7616C317.776 86.3908 317.882 86.0009 317.882 85.5918L317.882 84.2111C317.818 84.2879 317.678 84.3582 317.46 84.4222C317.247 84.4819 317 84.5352 316.719 84.5821C316.442 84.6248 316.171 84.6632 315.907 84.6973C315.647 84.7272 315.436 84.7528 315.274 84.7741C314.882 84.8253 314.516 84.9085 314.175 85.0236C313.838 85.1345 313.565 85.3028 313.357 85.5287C313.152 85.7504 313.05 86.0529 313.05 86.4364C313.05 86.9606 313.244 87.3569 313.632 87.6253C314.024 87.8894 314.521 88.0214 315.121 88.0213ZM326.413 79.3261L326.413 80.6045L321.325 80.6054L321.325 79.327L326.413 79.3261ZM322.807 76.9744L324.316 76.9742L324.318 86.3321C324.318 86.7583 324.38 87.0779 324.503 87.2909C324.631 87.4997 324.793 87.6403 324.989 87.7127C325.189 87.7808 325.4 87.8149 325.622 87.8148C325.788 87.8148 325.924 87.8063 326.031 87.7892C326.138 87.7679 326.223 87.7508 326.287 87.738L326.594 89.0931C326.491 89.1315 326.349 89.1698 326.165 89.2082C325.982 89.2509 325.75 89.2722 325.469 89.2723C325.043 89.2723 324.625 89.1808 324.216 88.9976C323.811 88.8145 323.474 88.5354 323.206 88.1605C322.941 87.7855 322.809 87.3125 322.809 86.7415L322.807 76.9744ZM334.871 85.1285L334.87 79.3245L336.378 79.3243L336.38 89.1424L334.871 89.1427L334.871 87.4808L334.769 87.4808C334.539 87.9794 334.181 88.4035 333.695 88.753C333.209 89.0983 332.596 89.271 331.854 89.2711C331.241 89.2712 330.695 89.1371 330.218 88.8687C329.741 88.5961 329.366 88.187 329.093 87.6416C328.82 87.092 328.683 86.3995 328.683 85.5643L328.682 79.3257L330.191 79.3254L330.192 85.4617C330.192 86.1777 330.392 86.7486 330.793 87.1747C331.198 87.6008 331.714 87.8137 332.34 87.8136C332.715 87.8136 333.096 87.7176 333.484 87.5258C333.876 87.3339 334.204 87.0399 334.468 86.6435C334.737 86.2471 334.871 85.7421 334.871 85.1285ZM339.143 89.1419L339.141 79.3238L340.599 79.3235L340.599 80.8064L340.701 80.8064C340.88 80.3206 341.204 79.9264 341.672 79.6237C342.141 79.3211 342.669 79.1697 343.258 79.1696C343.368 79.1696 343.507 79.1717 343.673 79.1759C343.839 79.1801 343.965 79.1865 344.05 79.195L344.05 80.7291C343.999 80.7163 343.882 80.6972 343.699 80.6716C343.52 80.6419 343.33 80.627 343.13 80.627C342.653 80.6271 342.227 80.7273 341.852 80.9277C341.481 81.1238 341.187 81.3965 340.97 81.746C340.757 82.0912 340.65 82.4854 340.65 82.9286L340.651 89.1417L339.143 89.1419ZM349.658 89.3446C348.712 89.3447 347.896 89.1361 347.21 88.7186C346.528 88.2968 346.001 87.7089 345.63 86.9547C345.264 86.1962 345.08 85.3142 345.08 84.3085C345.08 83.3028 345.263 82.4164 345.629 81.6493C346 80.8779 346.516 80.277 347.176 79.8464C347.841 79.4117 348.616 79.1942 349.503 79.194C350.014 79.1939 350.519 79.2791 351.018 79.4494C351.516 79.6198 351.97 79.8967 352.379 80.2802C352.788 80.6593 353.114 81.1621 353.357 81.7885C353.6 82.4149 353.722 83.1862 353.722 84.1024L353.722 84.7416L346.154 84.7429L346.154 83.439L352.188 83.4379C352.188 82.8839 352.077 82.3896 351.855 81.955C351.638 81.5203 351.327 81.1774 350.922 80.926C350.521 80.6747 350.048 80.549 349.503 80.5491C348.902 80.5493 348.382 80.6985 347.943 80.9969C347.509 81.291 347.174 81.6746 346.94 82.1476C346.706 82.6207 346.589 83.1278 346.589 83.669L346.589 84.5383C346.589 85.2798 346.717 85.9083 346.973 86.4239C347.233 86.9352 347.593 87.3251 348.053 87.5934C348.513 87.8576 349.048 87.9896 349.658 87.9895C350.054 87.9894 350.412 87.9339 350.731 87.8231C351.055 87.708 351.334 87.5374 351.569 87.3116C351.803 87.0814 351.984 86.7959 352.112 86.4549L353.569 86.8637C353.416 87.3581 353.158 87.7928 352.796 88.1679C352.434 88.5387 351.987 88.8285 351.454 89.0374C350.921 89.2421 350.323 89.3445 349.658 89.3446ZM359.725 89.3427C358.907 89.3429 358.185 89.1363 357.558 88.7231C356.932 88.3056 356.442 87.7176 356.088 86.9592C355.734 86.1965 355.557 85.2952 355.557 84.2554C355.557 83.2242 355.733 82.3293 356.087 81.5707C356.44 80.8121 356.932 80.2261 357.563 79.8126C358.194 79.3991 358.922 79.1923 359.749 79.1922C360.388 79.1921 360.893 79.2985 361.264 79.5115C361.639 79.7202 361.925 79.9588 362.121 80.2273C362.321 80.4914 362.477 80.7087 362.587 80.8792L362.715 80.8791L362.714 76.0467L364.223 76.0465L364.225 89.1374L362.768 89.1376L362.768 87.6291L362.589 87.6292C362.478 87.8082 362.32 88.034 362.116 88.3068C361.911 88.5753 361.619 88.8161 361.24 89.0293C360.861 89.2381 360.356 89.3426 359.725 89.3427ZM359.93 87.9876C360.535 87.9875 361.046 87.8297 361.464 87.5143C361.881 87.1946 362.199 86.7535 362.416 86.191C362.633 85.6242 362.742 84.97 362.741 84.2286C362.741 83.4956 362.635 82.8543 362.421 82.3046C362.208 81.7507 361.893 81.3203 361.475 81.0136C361.058 80.7026 360.542 80.5471 359.928 80.5473C359.289 80.5474 358.756 80.7115 358.33 81.0397C357.909 81.3637 357.591 81.8048 357.378 82.3631C357.169 82.9171 357.065 83.5392 357.065 84.2296C357.065 84.9285 357.172 85.5634 357.385 86.1344C357.603 86.7011 357.922 87.1527 358.344 87.4893C358.771 87.8216 359.299 87.9877 359.93 87.9876ZM376.249 89.3397C375.362 89.3399 374.585 89.1291 373.916 88.7074C373.251 88.2856 372.731 87.6955 372.356 86.937C371.985 86.1786 371.799 85.2923 371.799 84.278C371.799 83.2553 371.984 82.3625 372.355 81.5997C372.729 80.8368 373.249 80.2444 373.914 79.8224C374.583 79.4004 375.361 79.1893 376.247 79.1892C377.133 79.189 377.909 79.3998 378.574 79.8216C379.243 80.2433 379.763 80.8356 380.134 81.5983C380.509 82.361 380.697 83.2537 380.697 84.2764C380.697 85.2906 380.51 86.177 380.135 86.9356C379.764 87.6942 379.244 88.2845 378.575 88.7065C377.911 89.1285 377.135 89.3396 376.249 89.3397ZM376.249 87.9846C376.922 87.9845 377.476 87.8118 377.91 87.4666C378.345 87.1213 378.667 86.6674 378.875 86.1049C379.084 85.5424 379.188 84.933 379.188 84.2767C379.188 83.6205 379.084 83.009 378.875 82.4422C378.666 81.8755 378.344 81.4175 377.909 81.0681C377.474 80.7188 376.92 80.5442 376.247 80.5443C375.574 80.5444 375.02 80.7192 374.585 81.0687C374.151 81.4182 373.829 81.8764 373.62 82.4432C373.412 83.01 373.307 83.6215 373.307 84.2778C373.308 84.934 373.412 85.5434 373.621 86.1058C373.83 86.6683 374.152 87.1221 374.586 87.4672C375.021 87.8123 375.575 87.9847 376.249 87.9846ZM384.508 83.2274L384.509 89.1337L383 89.134L382.999 79.3158L384.456 79.3155L384.456 80.8496L384.584 80.8496C384.814 80.351 385.163 79.9503 385.632 79.6477C386.101 79.3408 386.706 79.1873 387.447 79.1871C388.112 79.187 388.694 79.3233 389.192 79.5959C389.691 79.8643 390.079 80.2733 390.356 80.823C390.633 81.3684 390.772 82.0587 390.772 82.8939L390.773 89.1326L389.265 89.1328L389.263 82.9965C389.263 82.2252 389.063 81.6243 388.662 81.194C388.262 80.7594 387.712 80.5422 387.013 80.5423C386.531 80.5424 386.101 80.6469 385.722 80.8558C385.347 81.0647 385.051 81.3694 384.833 81.77C384.616 82.1706 384.508 82.6564 384.508 83.2274ZM409.175 76.0383L409.177 89.1292L407.643 89.1295L400.508 78.8524L400.38 78.8524L400.382 89.1308L398.797 89.1311L398.794 76.0402L400.328 76.0399L407.489 86.3426L407.617 86.3426L407.615 76.0386L409.175 76.0383ZM415.034 89.3583C414.412 89.3584 413.847 89.2413 413.34 89.007C412.833 88.7685 412.43 88.4255 412.132 87.9781C411.833 87.5265 411.684 86.981 411.684 86.3418C411.684 85.7793 411.795 85.3233 412.016 84.9739C412.238 84.6201 412.534 84.3431 412.905 84.1427C413.275 83.9424 413.684 83.7932 414.132 83.6951C414.583 83.5927 415.037 83.5117 415.493 83.4519C416.09 83.3751 416.573 83.3175 416.944 83.2791C417.319 83.2364 417.592 83.166 417.762 83.068C417.937 82.97 418.024 82.7995 418.024 82.5566L418.024 82.5054C418.024 81.8748 417.852 81.3847 417.506 81.0354C417.165 80.686 416.648 80.5114 415.953 80.5115C415.233 80.5116 414.668 80.6694 414.259 80.9848C413.85 81.3002 413.563 81.6369 413.396 81.9949L411.964 81.4838C412.22 80.8872 412.561 80.4226 412.987 80.0902C413.417 79.7534 413.886 79.519 414.393 79.3868C414.904 79.2503 415.407 79.1821 415.902 79.182C416.217 79.1819 416.579 79.2202 416.988 79.2968C417.402 79.3692 417.8 79.5204 418.184 79.7504C418.571 79.9805 418.893 80.3277 419.149 80.7922C419.405 81.2566 419.533 81.8788 419.533 82.6586L419.534 89.1273L418.026 89.1276L418.025 87.7981L417.949 87.7981C417.846 88.0112 417.676 88.2392 417.437 88.4821C417.199 88.7251 416.881 88.9318 416.485 89.1023C416.089 89.2728 415.605 89.3582 415.034 89.3583ZM415.264 88.0031C415.861 88.003 416.363 87.8857 416.772 87.6513C417.186 87.4168 417.497 87.1142 417.705 86.7434C417.918 86.3727 418.025 85.9827 418.025 85.5736L418.025 84.1929C417.961 84.2697 417.82 84.34 417.603 84.404C417.39 84.4637 417.143 84.517 416.861 84.5639C416.584 84.6066 416.314 84.645 416.05 84.6791C415.79 84.709 415.579 84.7346 415.417 84.7559C415.025 84.8071 414.658 84.8903 414.317 85.0054C413.981 85.1163 413.708 85.2846 413.499 85.5105C413.295 85.7322 413.193 86.0347 413.193 86.4183C413.193 86.9424 413.387 87.3387 413.775 87.6071C414.167 87.8712 414.663 88.0032 415.264 88.0031ZM426.556 79.3079L426.556 80.5863L421.468 80.5872L421.467 79.3088L426.556 79.3079ZM422.95 76.9563L424.459 76.956L424.46 86.3139C424.46 86.7401 424.522 87.0597 424.646 87.2727C424.774 87.4815 424.936 87.6221 425.132 87.6945C425.332 87.7626 425.543 87.7967 425.764 87.7967C425.931 87.7966 426.067 87.7881 426.174 87.771C426.28 87.7497 426.365 87.7326 426.429 87.7198L426.736 89.0749C426.634 89.1133 426.491 89.1516 426.308 89.19C426.125 89.2327 425.893 89.254 425.611 89.2541C425.185 89.2541 424.768 89.1626 424.358 88.9794C423.954 88.7963 423.617 88.5172 423.348 88.1423C423.084 87.7673 422.952 87.2943 422.952 86.7233L422.95 76.9563ZM428.826 89.1256L428.825 79.3075L430.333 79.3072L430.335 89.1254L428.826 89.1256ZM429.591 77.671C429.297 77.671 429.044 77.5709 428.831 77.3707C428.622 77.1704 428.517 76.9297 428.517 76.6484C428.517 76.3672 428.622 76.1264 428.83 75.9261C429.044 75.7257 429.297 75.6256 429.591 75.6255C429.885 75.6255 430.137 75.7255 430.345 75.9258C430.559 76.126 430.665 76.3668 430.665 76.648C430.665 76.9293 430.559 77.1701 430.346 77.3704C430.137 77.5707 429.885 77.6709 429.591 77.671ZM437.087 89.3287C436.2 89.3288 435.423 89.1181 434.753 88.6963C434.089 88.2745 433.569 87.6844 433.193 86.926C432.823 86.1675 432.637 85.2812 432.637 84.267C432.637 83.2443 432.822 82.3515 433.192 81.5886C433.567 80.8258 434.087 80.2334 434.752 79.8114C435.421 79.3894 436.198 79.1783 437.085 79.1781C437.971 79.178 438.747 79.3888 439.412 79.8105C440.081 80.2323 440.601 80.8245 440.972 81.5872C441.347 82.3499 441.534 83.2427 441.535 84.2654C441.535 85.2796 441.347 86.166 440.973 86.9246C440.602 87.6832 440.082 88.2735 439.413 88.6955C438.749 89.1174 437.973 89.3285 437.087 89.3287ZM437.086 87.9736C437.76 87.9735 438.314 87.8008 438.748 87.4555C439.183 87.1103 439.504 86.6564 439.713 86.0938C439.922 85.5313 440.026 84.9219 440.026 84.2657C440.026 83.6094 439.921 82.9979 439.713 82.4312C439.504 81.8645 439.182 81.4064 438.747 81.0571C438.312 80.7077 437.758 80.5331 437.085 80.5332C436.412 80.5334 435.858 80.7082 435.423 81.0577C434.989 81.4072 434.667 81.8653 434.458 82.4321C434.25 82.9989 434.145 83.6105 434.145 84.2667C434.146 84.923 434.25 85.5323 434.459 86.0948C434.668 86.6573 434.99 87.111 435.424 87.4561C435.859 87.8012 436.413 87.9737 437.086 87.9736ZM445.346 83.2164L445.347 89.1226L443.838 89.1229L443.836 79.3047L445.294 79.3045L445.294 80.8386L445.422 80.8385C445.652 80.3399 446.001 79.9393 446.47 79.6366C446.939 79.3297 447.544 79.1762 448.285 79.1761C448.95 79.176 449.532 79.3122 450.03 79.5849C450.529 79.8532 450.917 80.2623 451.194 80.8119C451.471 81.3573 451.61 82.0476 451.61 82.8829L451.611 89.1215L450.102 89.1218L450.101 82.9854C450.101 82.2141 449.901 81.6133 449.5 81.183C449.099 80.7484 448.55 80.5312 447.851 80.5313C447.369 80.5314 446.939 80.6358 446.56 80.8447C446.185 81.0536 445.889 81.3583 445.671 81.7589C445.454 82.1596 445.346 82.6454 445.346 83.2164ZM457.257 89.3506C456.635 89.3507 456.07 89.2336 455.563 88.9993C455.056 88.7608 454.653 88.4178 454.355 87.9704C454.056 87.5188 453.907 86.9734 453.907 86.3342C453.907 85.7717 454.017 85.3157 454.239 84.9662C454.46 84.6125 454.757 84.3354 455.127 84.1351C455.498 83.9347 455.907 83.7855 456.354 83.6874C456.806 83.585 457.26 83.504 457.716 83.4443C458.312 83.3674 458.796 83.3098 459.167 83.2714C459.542 83.2287 459.815 83.1584 459.985 83.0603C460.16 82.9623 460.247 82.7918 460.247 82.5489L460.247 82.4978C460.247 81.8671 460.074 81.3771 459.729 81.0277C459.388 80.6783 458.87 80.5037 458.176 80.5038C457.455 80.504 456.891 80.6617 456.482 80.9772C456.073 81.2926 455.785 81.6293 455.619 81.9873L454.187 81.4762C454.443 80.8795 454.784 80.415 455.21 80.0825C455.64 79.7458 456.109 79.5113 456.616 79.3791C457.127 79.2427 457.63 79.1744 458.124 79.1743C458.44 79.1742 458.802 79.2125 459.211 79.2892C459.624 79.3615 460.023 79.5127 460.406 79.7428C460.794 79.9728 461.116 80.3201 461.372 80.7845C461.627 81.2489 461.755 81.8711 461.756 82.6509L461.757 89.1197L460.248 89.1199L460.248 87.7904L460.171 87.7904C460.069 88.0035 459.899 88.2315 459.66 88.4744C459.421 88.7174 459.104 88.9241 458.708 89.0946C458.311 89.2652 457.828 89.3505 457.257 89.3506ZM457.487 87.9954C458.083 87.9953 458.586 87.8781 458.995 87.6436C459.408 87.4092 459.719 87.1065 459.928 86.7358C460.141 86.365 460.248 85.975 460.248 85.566L460.247 84.1853C460.183 84.262 460.043 84.3323 459.825 84.3963C459.612 84.456 459.365 84.5093 459.084 84.5562C458.807 84.5989 458.536 84.6373 458.272 84.6714C458.012 84.7013 457.801 84.7269 457.639 84.7483C457.247 84.7995 456.881 84.8826 456.54 84.9977C456.203 85.1086 455.931 85.277 455.722 85.5029C455.517 85.7245 455.415 86.0271 455.415 86.4106C455.415 86.9347 455.609 87.331 455.997 87.5994C456.389 87.8635 456.886 87.9955 457.487 87.9954ZM466.016 76.028L466.019 89.1189L464.51 89.1192L464.508 76.0283L466.016 76.028ZM477.551 89.2958C476.691 89.2959 475.949 89.1384 475.327 88.8232C474.705 88.5079 474.225 88.0755 473.889 87.5258C473.552 86.9762 473.383 86.3477 473.383 85.6403C473.383 85.0948 473.498 84.6111 473.728 84.1892C473.962 83.763 474.284 83.3688 474.693 83.0065C475.106 82.64 475.581 82.2734 476.118 81.9068L478.01 80.5002C478.381 80.2573 478.677 79.9973 478.898 79.7202C479.124 79.4432 479.237 79.081 479.237 78.6335C479.237 78.3011 479.09 77.9794 478.796 77.6684C478.506 77.3574 478.125 77.2019 477.652 77.202C477.319 77.2021 477.025 77.2873 476.77 77.4578C476.518 77.6241 476.32 77.8372 476.175 78.0972C476.035 78.3529 475.964 78.6171 475.964 78.8898C475.964 79.1966 476.048 79.5077 476.214 79.823C476.384 80.134 476.6 80.4536 476.86 80.7817C477.124 81.1055 477.397 81.4378 477.678 81.7787L483.688 89.1157L481.872 89.116L476.911 83.134C476.451 82.5801 476.033 82.0773 475.658 81.6257C475.283 81.174 474.985 80.7288 474.763 80.2899C474.541 79.851 474.43 79.3759 474.43 78.8645C474.43 78.2764 474.56 77.7608 474.82 77.3176C475.084 76.8701 475.453 76.5227 475.926 76.2755C476.403 76.024 476.961 75.8981 477.6 75.898C478.256 75.8979 478.821 76.0257 479.294 76.2812C479.767 76.5326 480.132 76.867 480.387 77.2846C480.643 77.6979 480.771 78.1475 480.771 78.6333C480.771 79.2597 480.616 79.803 480.305 80.2633C479.994 80.7236 479.57 81.1519 479.033 81.5483L476.425 83.492C475.837 83.9268 475.439 84.3487 475.23 84.7578C475.022 85.167 474.917 85.461 474.917 85.64C474.917 86.0491 475.024 86.4305 475.237 86.7841C475.45 87.1378 475.751 87.4232 476.139 87.6405C476.526 87.8577 476.98 87.9663 477.5 87.9662C477.994 87.9661 478.476 87.8617 478.945 87.6528C479.413 87.4396 479.837 87.1327 480.216 86.7321C480.6 86.3314 480.902 85.8498 481.124 85.2873C481.35 84.7248 481.462 84.0919 481.462 83.3888L482.92 83.3885C482.92 84.2579 482.82 84.9674 482.62 85.5171C482.42 86.0669 482.194 86.4973 481.942 86.8085C481.691 87.1196 481.489 87.3519 481.335 87.5053C481.284 87.5692 481.237 87.6332 481.195 87.6971C481.152 87.761 481.105 87.825 481.054 87.8889C480.632 88.362 480.1 88.7158 479.456 88.9503C478.813 89.1805 478.178 89.2957 477.551 89.2958ZM492.208 76.0232L492.21 89.1141L490.625 89.1144L490.622 76.0235L492.208 76.0232ZM496.691 83.2071L496.692 89.1133L495.184 89.1136L495.182 79.2954L496.64 79.2951L496.64 80.8292L496.768 80.8292C496.998 80.3306 497.347 79.93 497.816 79.6273C498.284 79.3204 498.889 79.1669 499.631 79.1668C500.296 79.1666 500.877 79.3029 501.376 79.5755C501.875 79.8439 502.263 80.2529 502.54 80.8026C502.817 81.348 502.955 82.0383 502.955 82.8735L502.957 89.1122L501.448 89.1125L501.447 82.9761C501.447 82.2048 501.246 81.604 500.846 81.1736C500.445 80.7391 499.895 80.5218 499.197 80.522C498.715 80.522 498.285 80.6265 497.905 80.8354C497.53 81.0443 497.234 81.349 497.017 81.7496C496.8 82.1502 496.691 82.636 496.691 83.2071ZM509.981 79.2927L509.982 80.5711L504.893 80.5721L504.893 79.2936L509.981 79.2927ZM506.376 76.9411L507.884 76.9408L507.886 86.2988C507.886 86.7249 507.948 87.0445 508.072 87.2576C508.199 87.4663 508.361 87.6069 508.557 87.6793C508.758 87.7475 508.969 87.7815 509.19 87.7815C509.356 87.7815 509.493 87.7729 509.599 87.7559C509.706 87.7345 509.791 87.7175 509.855 87.7047L510.162 89.0597C510.06 89.0981 509.917 89.1365 509.734 89.1749C509.551 89.2175 509.318 89.2389 509.037 89.2389C508.611 89.239 508.193 89.1474 507.784 88.9643C507.379 88.7811 507.043 88.5021 506.774 88.1271C506.51 87.7522 506.378 87.2792 506.378 86.7081L506.376 76.9411ZM516.263 89.3143C515.317 89.3145 514.501 89.1058 513.815 88.6883C513.133 88.2666 512.607 87.6786 512.236 86.9244C511.869 86.166 511.686 85.2839 511.686 84.2782C511.686 83.2725 511.869 82.3861 512.235 81.619C512.606 80.8476 513.121 80.2467 513.781 79.8162C514.446 79.3814 515.222 79.1639 516.108 79.1638C516.619 79.1637 517.124 79.2488 517.623 79.4192C518.122 79.5895 518.576 79.8664 518.985 80.2499C519.394 80.6291 519.72 81.1319 519.963 81.7582C520.206 82.3846 520.328 83.1559 520.328 84.0721L520.328 84.7113L512.76 84.7127L512.759 83.4087L518.793 83.4076C518.793 82.8536 518.683 82.3593 518.461 81.9247C518.243 81.4901 517.932 81.1471 517.527 80.8958C517.127 80.6444 516.654 80.5188 516.108 80.5189C515.507 80.519 514.988 80.6682 514.549 80.9666C514.114 81.2607 513.78 81.6443 513.545 82.1174C513.311 82.5904 513.194 83.0975 513.194 83.6387L513.194 84.508C513.194 85.2495 513.322 85.878 513.578 86.3936C513.838 86.9049 514.198 87.2948 514.659 87.5632C515.119 87.8273 515.654 87.9593 516.263 87.9592C516.659 87.9591 517.017 87.9037 517.337 87.7928C517.661 87.6777 517.94 87.5072 518.174 87.2813C518.408 87.0511 518.59 86.7656 518.717 86.4247L520.175 86.8335C520.021 87.3278 519.764 87.7625 519.402 88.1376C519.039 88.5084 518.592 88.7983 518.059 89.0072C517.527 89.2118 516.928 89.3142 516.263 89.3143ZM522.623 89.1086L522.622 79.2904L524.079 79.2902L524.079 80.7731L524.182 80.7731C524.36 80.2873 524.684 79.893 525.153 79.5904C525.622 79.2877 526.15 79.1364 526.738 79.1363C526.849 79.1362 526.987 79.1384 527.154 79.1426C527.32 79.1468 527.445 79.1532 527.531 79.1617L527.531 80.6958C527.48 80.683 527.363 80.6639 527.179 80.6383C527 80.6085 526.811 80.5936 526.61 80.5937C526.133 80.5938 525.707 80.694 525.332 80.8943C524.961 81.0904 524.667 81.3632 524.45 81.7127C524.237 82.0579 524.131 82.4521 524.131 82.8953L524.132 89.1083L522.623 89.1086ZM530.828 83.2009L530.829 89.1071L529.321 89.1074L529.319 79.2892L530.776 79.2889L530.777 80.823L530.904 80.823C531.134 80.3244 531.484 79.9238 531.952 79.6211C532.421 79.3142 533.026 79.1607 533.768 79.1606C534.432 79.1604 535.014 79.2967 535.513 79.5693C536.011 79.8377 536.399 80.2467 536.676 80.7964C536.953 81.3418 537.092 82.0321 537.092 82.8673L537.093 89.106L535.585 89.1062L535.584 82.9699C535.584 82.1986 535.383 81.5978 534.983 81.1674C534.582 80.7329 534.032 80.5156 533.333 80.5157C532.852 80.5158 532.421 80.6203 532.042 80.8292C531.667 81.0381 531.371 81.3428 531.154 81.7434C530.937 82.144 530.828 82.6298 530.828 83.2009ZM542.739 89.3351C542.117 89.3352 541.552 89.2181 541.045 88.9838C540.538 88.7453 540.135 88.4023 539.837 87.9549C539.539 87.5033 539.389 86.9578 539.389 86.3186C539.389 85.7561 539.5 85.3001 539.721 84.9507C539.943 84.5969 540.239 84.3199 540.61 84.1195C540.98 83.9192 541.389 83.77 541.837 83.6719C542.289 83.5695 542.742 83.4885 543.198 83.4287C543.795 83.3519 544.279 83.2943 544.649 83.2559C545.024 83.2132 545.297 83.1428 545.467 83.0448C545.642 82.9468 545.729 82.7763 545.729 82.5334L545.729 82.4822C545.729 81.8516 545.557 81.3615 545.211 81.0122C544.87 80.6628 544.353 80.4882 543.658 80.4883C542.938 80.4884 542.373 80.6462 541.964 80.9616C541.555 81.277 541.268 81.6137 541.101 81.9717L539.67 81.4606C539.925 80.864 540.266 80.3994 540.692 80.067C541.122 79.7302 541.591 79.4958 542.098 79.3636C542.609 79.2271 543.112 79.1589 543.607 79.1588C543.922 79.1587 544.284 79.197 544.693 79.2736C545.107 79.346 545.505 79.4972 545.889 79.7272C546.277 79.9573 546.598 80.3045 546.854 80.769C547.11 81.2334 547.238 81.8556 547.238 82.6354L547.239 89.1041L545.731 89.1044L545.73 87.7749L545.654 87.7749C545.551 87.988 545.381 88.216 545.142 88.4589C544.904 88.7019 544.586 88.9086 544.19 89.0791C543.794 89.2496 543.31 89.335 542.739 89.3351ZM542.969 87.9799C543.566 87.9798 544.068 87.8625 544.477 87.6281C544.891 87.3936 545.202 87.091 545.411 86.7202C545.624 86.3495 545.73 85.9595 545.73 85.5504L545.73 84.1697C545.666 84.2465 545.525 84.3168 545.308 84.3808C545.095 84.4405 544.848 84.4938 544.566 84.5407C544.289 84.5834 544.019 84.6218 543.755 84.6559C543.495 84.6858 543.284 84.7114 543.122 84.7327C542.73 84.7839 542.363 84.8671 542.022 84.9822C541.686 85.0931 541.413 85.2614 541.204 85.4873C541 85.709 540.898 86.0115 540.898 86.3951C540.898 86.9192 541.092 87.3155 541.48 87.5839C541.872 87.848 542.368 87.98 542.969 87.9799ZM554.261 79.2847L554.261 80.5631L549.173 80.564L549.173 79.2856L554.261 79.2847ZM550.655 76.9331L552.164 76.9328L552.165 86.2907C552.165 86.7169 552.227 87.0365 552.351 87.2495C552.479 87.4583 552.641 87.5989 552.837 87.6713C553.037 87.7394 553.248 87.7735 553.47 87.7735C553.636 87.7734 553.772 87.7649 553.879 87.7478C553.985 87.7265 554.07 87.7094 554.134 87.6966L554.441 89.0517C554.339 89.0901 554.196 89.1284 554.013 89.1668C553.83 89.2095 553.598 89.2308 553.316 89.2309C552.89 89.2309 552.473 89.1394 552.063 88.9562C551.659 88.7731 551.322 88.494 551.053 88.1191C550.789 87.7441 550.657 87.2711 550.657 86.7001L550.655 76.9331ZM556.532 89.1024L556.53 79.2843L558.038 79.284L558.04 89.1022L556.532 89.1024ZM557.297 77.6478C557.002 77.6478 556.749 77.5477 556.536 77.3475C556.327 77.1472 556.223 76.9065 556.222 76.6252C556.222 76.344 556.327 76.1032 556.536 75.9029C556.749 75.7025 557.002 75.6024 557.296 75.6023C557.59 75.6023 557.842 75.7023 558.05 75.9026C558.264 76.1028 558.37 76.3436 558.37 76.6248C558.37 76.9061 558.264 77.1469 558.051 77.3472C557.842 77.5475 557.591 77.6477 557.297 77.6478ZM564.792 89.3055C563.905 89.3056 563.128 89.0949 562.459 88.6731C561.794 88.2513 561.274 87.6612 560.899 86.9028C560.528 86.1443 560.342 85.258 560.342 84.2438C560.342 83.2211 560.527 82.3283 560.898 81.5654C561.272 80.8026 561.792 80.2102 562.457 79.7882C563.126 79.3662 563.904 79.1551 564.79 79.1549C565.676 79.1548 566.452 79.3656 567.117 79.7873C567.786 80.2091 568.306 80.8013 568.677 81.564C569.052 82.3267 569.239 83.2195 569.24 84.2422C569.24 85.2564 569.053 86.1428 568.678 86.9014C568.307 87.66 567.787 88.2503 567.118 88.6723C566.454 89.0942 565.678 89.3053 564.792 89.3055ZM564.791 87.9504C565.465 87.9503 566.019 87.7776 566.453 87.4323C566.888 87.0871 567.21 86.6332 567.418 86.0706C567.627 85.5081 567.731 84.8987 567.731 84.2425C567.731 83.5862 567.627 82.9747 567.418 82.408C567.209 81.8413 566.887 81.3832 566.452 81.0339C566.017 80.6845 565.463 80.5099 564.79 80.51C564.117 80.5102 563.563 80.685 563.128 81.0345C562.694 81.384 562.372 81.8422 562.163 82.4089C561.955 82.9757 561.85 83.5873 561.85 84.2435C561.851 84.8998 561.955 85.5091 562.164 86.0716C562.373 86.6341 562.695 87.0878 563.129 87.4329C563.564 87.778 564.118 87.9505 564.791 87.9504ZM573.051 83.1932L573.052 89.0994L571.543 89.0997L571.541 79.2815L572.999 79.2813L572.999 80.8154L573.127 80.8153C573.357 80.3167 573.706 79.9161 574.175 79.6134C574.644 79.3065 575.249 79.153 575.99 79.1529C576.655 79.1528 577.237 79.289 577.735 79.5617C578.234 79.83 578.622 80.2391 578.899 80.7887C579.176 81.3341 579.315 82.0244 579.315 82.8597L579.316 89.0983L577.807 89.0986L577.806 82.9622C577.806 82.1909 577.606 81.5901 577.205 81.1598C576.805 80.7252 576.255 80.508 575.556 80.5081C575.074 80.5082 574.644 80.6126 574.265 80.8215C573.89 81.0304 573.594 81.3351 573.376 81.7357C573.159 82.1364 573.051 82.6222 573.051 83.1932ZM584.962 89.3274C584.34 89.3275 583.775 89.2104 583.268 88.9761C582.761 88.7376 582.358 88.3946 582.06 87.9472C581.761 87.4956 581.612 86.9502 581.612 86.311C581.612 85.7485 581.722 85.2925 581.944 84.943C582.166 84.5893 582.462 84.3122 582.832 84.1119C583.203 83.9115 583.612 83.7623 584.06 83.6642C584.511 83.5618 584.965 83.4808 585.421 83.4211C586.018 83.3442 586.501 83.2866 586.872 83.2482C587.247 83.2055 587.52 83.1352 587.69 83.0371C587.865 82.9391 587.952 82.7686 587.952 82.5257L587.952 82.4746C587.952 81.8439 587.779 81.3539 587.434 81.0045C587.093 80.6551 586.575 80.4805 585.881 80.4806C585.16 80.4808 584.596 80.6385 584.187 80.954C583.778 81.2694 583.49 81.6061 583.324 81.9641L581.892 81.453C582.148 80.8563 582.489 80.3918 582.915 80.0593C583.345 79.7226 583.814 79.4881 584.321 79.3559C584.832 79.2195 585.335 79.1512 585.829 79.1511C586.145 79.151 586.507 79.1893 586.916 79.266C587.329 79.3383 587.728 79.4895 588.111 79.7196C588.499 79.9496 588.821 80.2969 589.077 80.7613C589.333 81.2257 589.46 81.8479 589.461 82.6277L589.462 89.0965L587.953 89.0967L587.953 87.7672L587.876 87.7672C587.774 87.9803 587.604 88.2083 587.365 88.4512C587.126 88.6942 586.809 88.9009 586.413 89.0714C586.016 89.242 585.533 89.3273 584.962 89.3274ZM585.192 87.9722C585.788 87.9721 586.291 87.8549 586.7 87.6204C587.113 87.386 587.424 87.0833 587.633 86.7126C587.846 86.3418 587.953 85.9518 587.953 85.5428L587.952 84.1621C587.888 84.2388 587.748 84.3091 587.531 84.3731C587.317 84.4328 587.07 84.4861 586.789 84.533C586.512 84.5757 586.242 84.6141 585.977 84.6482C585.717 84.6781 585.506 84.7037 585.345 84.7251C584.952 84.7763 584.586 84.8594 584.245 84.9745C583.908 85.0854 583.636 85.2538 583.427 85.4797C583.223 85.7013 583.12 86.0039 583.12 86.3874C583.12 86.9115 583.314 87.3078 583.702 87.5762C584.094 87.8403 584.591 87.9723 585.192 87.9722ZM593.721 76.0048L593.724 89.0957L592.215 89.096L592.213 76.0051L593.721 76.0048ZM601.55 92.7761L601.547 79.2761L603.005 79.2758L603.005 80.8355L603.184 80.8354C603.295 80.665 603.448 80.4476 603.644 80.1834C603.844 79.9149 604.13 79.6762 604.501 79.4673C604.875 79.2542 605.383 79.1475 606.022 79.1474C606.848 79.1473 607.577 79.3538 608.208 79.7671C608.839 80.1803 609.331 80.7661 609.685 81.5246C610.039 82.2831 610.216 83.1779 610.216 84.2092C610.216 85.2489 610.039 86.1503 609.686 86.9131C609.332 87.6717 608.842 88.2598 608.216 88.6776C607.59 89.091 606.867 89.2978 606.049 89.298C605.418 89.2981 604.913 89.1938 604.534 88.9851C604.155 88.7721 603.863 88.5313 603.658 88.2629C603.454 87.9902 603.296 87.7644 603.185 87.5854L603.057 87.5855L603.058 92.7758L601.55 92.7761ZM603.031 84.1849C603.031 84.9264 603.14 85.5805 603.358 86.1472C603.575 86.7097 603.893 87.1507 604.31 87.4702C604.728 87.7854 605.239 87.943 605.844 87.9429C606.475 87.9428 607.001 87.7765 607.423 87.4441C607.849 87.1073 608.169 86.6556 608.382 86.0888C608.599 85.5177 608.707 84.8827 608.707 84.1839C608.707 83.4935 608.601 82.8714 608.387 82.3175C608.178 81.7593 607.861 81.3183 607.435 80.9945C607.013 80.6664 606.482 80.5025 605.843 80.5026C605.229 80.5027 604.714 80.6583 604.296 80.9695C603.879 81.2764 603.563 81.7068 603.35 82.2608C603.137 82.8106 603.031 83.452 603.031 84.1849ZM614.024 76.0011L614.026 89.092L612.518 89.0923L612.516 76.0014L614.024 76.0011ZM619.679 89.3211C619.056 89.3212 618.492 89.2041 617.985 88.9698C617.478 88.7313 617.075 88.3883 616.776 87.9409C616.478 87.4893 616.329 86.9439 616.329 86.3046C616.329 85.7421 616.439 85.2862 616.661 84.9367C616.882 84.583 617.178 84.3059 617.549 84.1056C617.92 83.9052 618.329 83.756 618.776 83.6579C619.228 83.5555 619.682 83.4745 620.138 83.4148C620.734 83.3379 621.218 83.2803 621.589 83.2419C621.964 83.1992 622.236 83.1289 622.407 83.0308C622.582 82.9328 622.669 82.7623 622.669 82.5194L622.669 82.4683C622.669 81.8376 622.496 81.3476 622.151 80.9982C621.81 80.6488 621.292 80.4742 620.597 80.4743C619.877 80.4745 619.313 80.6322 618.904 80.9476C618.495 81.2631 618.207 81.5998 618.041 81.9577L616.609 81.4466C616.865 80.85 617.205 80.3855 617.631 80.053C618.062 79.7163 618.531 79.4818 619.038 79.3496C619.549 79.2132 620.052 79.1449 620.546 79.1448C620.861 79.1447 621.224 79.183 621.633 79.2597C622.046 79.332 622.445 79.4832 622.828 79.7133C623.216 79.9433 623.538 80.2906 623.794 80.755C624.049 81.2194 624.177 81.8416 624.177 82.6214L624.179 89.0902L622.67 89.0904L622.67 87.7609L622.593 87.7609C622.491 87.974 622.32 88.202 622.082 88.4449C621.843 88.6879 621.526 88.8946 621.13 89.0651C620.733 89.2357 620.25 89.321 619.679 89.3211ZM619.908 87.9659C620.505 87.9658 621.008 87.8485 621.417 87.6141C621.83 87.3796 622.141 87.077 622.35 86.7063C622.563 86.3355 622.669 85.9455 622.669 85.5365L622.669 84.1558C622.605 84.2325 622.465 84.3028 622.247 84.3668C622.034 84.4265 621.787 84.4798 621.506 84.5267C621.229 84.5694 620.958 84.6078 620.694 84.6419C620.434 84.6718 620.223 84.6974 620.061 84.7187C619.669 84.77 619.303 84.8531 618.962 84.9682C618.625 85.0791 618.353 85.2475 618.144 85.4734C617.939 85.695 617.837 85.9976 617.837 86.3811C617.837 86.9052 618.031 87.3015 618.419 87.5699C618.811 87.834 619.308 87.966 619.908 87.9659ZM631.2 79.2707L631.2 80.5491L626.112 80.55L626.112 79.2716L631.2 79.2707ZM627.595 76.9191L629.103 76.9188L629.105 86.2768C629.105 86.7029 629.167 87.0225 629.29 87.2355C629.418 87.4443 629.58 87.5849 629.776 87.6573C629.976 87.7255 630.187 87.7595 630.409 87.7595C630.575 87.7594 630.712 87.7509 630.818 87.7338C630.925 87.7125 631.01 87.6954 631.074 87.6827L631.381 89.0377C631.279 89.0761 631.136 89.1145 630.953 89.1528C630.769 89.1955 630.537 89.2168 630.256 89.2169C629.83 89.217 629.412 89.1254 629.003 88.9423C628.598 88.7591 628.261 88.48 627.993 88.1051C627.729 87.7301 627.596 87.2571 627.596 86.6861L627.595 76.9191ZM637.841 79.2695L637.842 80.5479L632.549 80.5489L632.549 79.2705L637.841 79.2695ZM634.136 89.0883L634.134 77.9151C634.134 77.3526 634.266 76.8838 634.53 76.5087C634.794 76.1337 635.137 75.8524 635.559 75.6648C635.981 75.4772 636.426 75.3834 636.895 75.3833C637.265 75.3832 637.568 75.413 637.802 75.4726C638.037 75.5322 638.211 75.5876 638.327 75.6387L637.892 76.9428C637.815 76.9172 637.709 76.8853 637.572 76.847C637.44 76.8086 637.266 76.7895 637.048 76.7895C636.55 76.7896 636.19 76.9154 635.968 77.1668C635.751 77.4183 635.642 77.7869 635.642 78.2727L635.644 89.0881L634.136 89.0883ZM643.542 89.2912C642.655 89.2913 641.878 89.0805 641.208 88.6588C640.544 88.237 640.024 87.6469 639.649 86.8885C639.278 86.13 639.092 85.2437 639.092 84.2295C639.092 83.2068 639.277 82.314 639.648 81.5511C640.022 80.7883 640.542 80.1958 641.207 79.7739C641.876 79.3519 642.654 79.1408 643.54 79.1406C644.426 79.1405 645.202 79.3513 645.867 79.773C646.536 80.1948 647.056 80.787 647.427 81.5497C647.802 82.3124 647.989 83.2051 647.99 84.2279C647.99 85.2421 647.803 86.1285 647.428 86.8871C647.057 87.6457 646.537 88.236 645.868 88.6579C645.204 89.0799 644.428 89.291 643.542 89.2912ZM643.541 87.9361C644.215 87.9359 644.769 87.7633 645.203 87.418C645.638 87.0728 645.96 86.6189 646.168 86.0563C646.377 85.4938 646.481 84.8844 646.481 84.2281C646.481 83.5719 646.376 82.9604 646.168 82.3937C645.959 81.827 645.637 81.3689 645.202 81.0196C644.767 80.6702 644.213 80.4956 643.54 80.4957C642.867 80.4959 642.313 80.6707 641.878 81.0202C641.444 81.3697 641.122 81.8278 640.913 82.3946C640.705 82.9614 640.6 83.573 640.6 84.2292C640.601 84.8855 640.705 85.4948 640.914 86.0573C641.123 86.6197 641.445 87.0735 641.879 87.4186C642.314 87.7637 642.868 87.9362 643.541 87.9361ZM650.293 89.0854L650.291 79.2672L651.749 79.267L651.749 80.7499L651.851 80.7499C652.03 80.2641 652.354 79.8698 652.823 79.5672C653.291 79.2646 653.82 79.1132 654.408 79.1131C654.519 79.1131 654.657 79.1152 654.823 79.1194C654.99 79.1236 655.115 79.13 655.201 79.1385L655.201 80.6726C655.15 80.6598 655.033 80.6407 654.849 80.6151C654.67 80.5853 654.481 80.5704 654.28 80.5705C653.803 80.5706 653.377 80.6708 653.002 80.8711C652.631 81.0672 652.337 81.34 652.12 81.6895C651.907 82.0347 651.801 82.4289 651.801 82.8721L651.802 89.0851L650.293 89.0854ZM656.991 89.0842L656.989 79.266L658.446 79.2657L658.446 80.7998L658.574 80.7998C658.779 80.2756 659.109 79.8686 659.565 79.5788C660.021 79.2846 660.568 79.1375 661.207 79.1374C661.855 79.1373 662.394 79.2842 662.825 79.5782C663.259 79.8679 663.598 80.2748 663.841 80.7989L663.944 80.7988C664.195 80.2917 664.572 79.8889 665.075 79.5905C665.578 79.2879 666.18 79.1365 666.884 79.1364C667.761 79.1362 668.48 79.4109 669.038 79.9606C669.596 80.5059 669.875 81.356 669.876 82.5108L669.877 89.0819L668.368 89.0821L668.367 82.5111C668.367 81.7867 668.169 81.269 667.772 80.9579C667.376 80.6469 666.909 80.4915 666.372 80.4916C665.682 80.4917 665.147 80.7006 664.768 81.1183C664.389 81.5317 664.199 82.0559 664.2 82.6908L664.201 89.0829L662.667 89.0832L662.665 82.3587C662.665 81.8005 662.484 81.351 662.122 81.0101C661.76 80.665 661.293 80.4925 660.722 80.4926C660.33 80.4927 659.963 80.5971 659.623 80.806C659.286 81.0149 659.013 81.3047 658.805 81.6755C658.6 82.042 658.498 82.466 658.498 82.9476L658.499 89.0839L656.991 89.0842ZM679.588 81.4608L678.233 81.8445C678.148 81.6187 678.022 81.3993 677.856 81.1862C677.694 80.9689 677.472 80.79 677.191 80.6494C676.91 80.5088 676.55 80.4386 676.111 80.4387C675.51 80.4388 675.009 80.5774 674.609 80.8544C674.212 81.1272 674.014 81.4746 674.014 81.8964C674.015 82.2714 674.151 82.5676 674.424 82.7849C674.696 83.0021 675.123 83.1832 675.702 83.328L677.16 83.6856C678.038 83.8986 678.692 84.2244 679.122 84.6633C679.553 85.0979 679.768 85.6582 679.768 86.3443C679.768 86.9068 679.606 87.4096 679.283 87.8529C678.963 88.2961 678.516 88.6456 677.94 88.9014C677.365 89.1572 676.696 89.2852 675.933 89.2853C674.932 89.2855 674.103 89.0683 673.447 88.6338C672.79 88.1992 672.375 87.5644 672.2 86.7292L673.632 86.3709C673.768 86.8993 674.026 87.2956 674.405 87.5597C674.789 87.8239 675.29 87.9559 675.908 87.9558C676.611 87.9556 677.169 87.8064 677.582 87.508C678 87.2054 678.209 86.8431 678.208 86.4212C678.208 86.0803 678.089 85.7948 677.85 85.5648C677.612 85.3304 677.245 85.1558 676.751 85.0408L675.114 84.6576C674.215 84.4447 673.555 84.1146 673.133 83.6672C672.715 83.2156 672.506 82.651 672.506 81.9734C672.506 81.4194 672.661 80.9294 672.972 80.5032C673.288 80.077 673.716 79.7424 674.257 79.4994C674.802 79.2564 675.42 79.1348 676.111 79.1347C677.082 79.1345 677.845 79.3475 678.399 79.7735C678.957 80.1995 679.354 80.7619 679.588 81.4608Z" fill="#191919"/>
</g>
<defs>
<clipPath id="clip0_1_2776">
<rect width="800" height="96" fill="white" transform="translate(0.974579 0.203369)"/>
</clipPath>
</defs>
</svg>
