<svg width="145" height="50" viewBox="0 0 145 50" fill="none" xmlns="http://www.w3.org/2000/svg">
<g filter="url(#filter0_d_243_4)">
<rect x="4.72523" y="0.7771" width="136" height="41" rx="5" transform="rotate(-0.0208176 4.72523 0.7771)" fill="#133F7D" shape-rendering="crispEdges"/>
<path d="M17.995 27.7722L17.9903 14.8122L23.1293 14.8104C24.0053 14.8101 24.7224 14.9868 25.2805 15.3406C25.8447 15.6884 26.2618 16.1352 26.532 16.6811C26.8082 17.227 26.9464 17.791 26.9466 18.373C26.9469 19.087 26.7761 19.6931 26.4343 20.1912C26.0985 20.6893 25.6396 21.0255 25.0577 21.1997L25.0575 20.7497C25.8736 20.9354 26.4917 21.3222 26.9119 21.91C27.3381 22.4978 27.5514 23.1668 27.5516 23.9168C27.5519 24.6848 27.4052 25.3568 27.1114 25.9329C26.8176 26.509 26.3797 26.9592 25.7979 27.2834C25.222 27.6076 24.508 27.7699 23.656 27.7702L17.995 27.7722ZM20.1903 25.7284L23.3853 25.7273C23.7633 25.7271 24.1023 25.652 24.4022 25.5019C24.7022 25.3458 24.9361 25.1297 25.104 24.8537C25.2779 24.5716 25.3648 24.2386 25.3646 23.8546C25.3645 23.5066 25.2894 23.1946 25.1393 22.9186C24.9892 22.6427 24.7701 22.4238 24.482 22.2619C24.194 22.094 23.849 22.0101 23.447 22.0103L20.189 22.0114L20.1903 25.7284ZM20.1882 19.9864L23.1042 19.9854C23.4162 19.9853 23.6952 19.9252 23.9412 19.8051C24.1871 19.685 24.382 19.5079 24.526 19.2739C24.6699 19.0398 24.7418 18.7518 24.7416 18.4098C24.7415 17.9598 24.5973 17.5848 24.3092 17.2849C24.0211 16.9851 23.6191 16.8352 23.1031 16.8354L20.1871 16.8364L20.1882 19.9864ZM33.6436 28.0366C32.6716 28.0369 31.8225 27.8182 31.0964 27.3805C30.3702 26.9427 29.806 26.34 29.4037 25.5721C29.0074 24.7982 28.8091 23.9103 28.8087 22.9083C28.8084 21.8883 29.0121 20.9942 29.4198 20.2261C29.8275 19.4579 30.3943 18.8577 31.1201 18.4255C31.846 17.9932 32.6859 17.7769 33.6399 17.7766C34.6179 17.7762 35.47 17.9949 36.1961 18.4326C36.9223 18.8704 37.4865 19.4762 37.8888 20.25C38.2911 21.0179 38.4924 21.9028 38.4927 22.9048C38.4931 23.9128 38.2894 24.8039 37.8817 25.578C37.48 26.3462 36.9162 26.9494 36.1904 27.3876C35.4645 27.8199 34.6156 28.0362 33.6436 28.0366ZM33.6429 26.0026C34.5069 26.0022 35.1488 25.714 35.5686 25.1379C35.9883 24.5617 36.1981 23.8176 36.1977 22.9056C36.1974 21.9636 35.9841 21.2137 35.5579 20.6559C35.1317 20.092 34.4926 19.8102 33.6406 19.8106C33.0586 19.8108 32.5787 19.9429 32.2008 20.2071C31.8289 20.4652 31.553 20.8283 31.3732 21.2964C31.1933 21.7584 31.1035 22.2955 31.1037 22.9075C31.1041 23.8495 31.3174 24.6024 31.7436 25.1662C32.1758 25.7241 32.8089 26.0029 33.6429 26.0026ZM44.7706 28.0325C43.7986 28.0329 42.9495 27.8142 42.2233 27.3764C41.4972 26.9387 40.9329 26.3359 40.5307 25.5681C40.1344 24.7942 39.9361 23.9063 39.9357 22.9043C39.9353 21.8843 40.139 20.9902 40.5467 20.222C40.9544 19.4539 41.5212 18.8537 42.2471 18.4214C42.9729 17.9892 43.8128 17.7729 44.7668 17.7725C45.7448 17.7722 46.5969 17.9909 47.3231 18.4286C48.0492 18.8663 48.6135 19.4721 49.0157 20.246C49.418 21.0138 49.6193 21.8988 49.6197 22.9008C49.6201 23.9088 49.4164 24.7998 49.0087 25.574C48.6069 26.3421 48.0432 26.9453 47.3173 27.3836C46.5915 27.8159 45.7426 28.0322 44.7706 28.0325ZM44.7698 25.9985C45.6338 25.9982 46.2757 25.71 46.6955 25.1338C47.1153 24.5577 47.325 23.8136 47.3247 22.9016C47.3244 21.9596 47.1111 21.2097 46.6849 20.6518C46.2587 20.088 45.6196 19.8062 44.7676 19.8065C44.1856 19.8067 43.7056 19.9389 43.3277 20.203C42.9558 20.4612 42.6799 20.8243 42.5001 21.2923C42.3203 21.7544 42.2305 22.2914 42.2307 22.9034C42.231 23.8454 42.4443 24.5984 42.8705 25.1622C43.3027 25.72 43.9358 25.9988 44.7698 25.9985ZM51.5864 27.76L51.5997 14.8L53.7957 14.7992L53.7986 22.7192L57.3519 18.0379L60.0609 18.037L56.2916 22.8983L60.3884 27.7568L57.5174 27.7579L53.7987 23.0792L53.8004 27.7592L51.5864 27.76ZM67.6116 28.0242C66.9096 28.0245 66.3155 27.8927 65.8294 27.6289C65.3433 27.359 64.9742 27.0022 64.722 26.5583C64.4759 26.1144 64.3527 25.6254 64.3525 25.0914C64.3523 24.6234 64.4302 24.2034 64.586 23.8313C64.7419 23.4533 64.9818 23.1292 65.3057 22.8591C65.6296 22.5829 66.0495 22.3578 66.5654 22.1836C66.9554 22.0575 67.4114 21.9433 67.9333 21.8411C68.4613 21.7389 69.0313 21.6457 69.6432 21.5615C70.2612 21.4713 70.9062 21.375 71.5781 21.2728L70.8043 21.7141C70.81 21.0421 70.6599 20.5471 70.3537 20.2292C70.0476 19.9113 69.5316 19.7525 68.8056 19.7528C68.3676 19.7529 67.9446 19.8551 67.5367 20.0592C67.1288 20.2634 66.8439 20.6145 66.6821 21.1126L64.7018 20.4923C64.9415 19.6702 65.3973 19.01 66.0691 18.5118C66.7469 18.0135 67.6588 17.7642 68.8048 17.7638C69.6688 17.7635 70.4279 17.9042 71.082 18.186C71.7421 18.4677 72.2313 18.9295 72.5495 19.5714C72.7236 19.9134 72.8288 20.2643 72.8649 20.6243C72.901 20.9783 72.9192 21.3653 72.9193 21.7853L72.9215 27.7523L71.0225 27.753L71.0217 25.647L71.3368 25.9889C70.8991 26.691 70.3863 27.2072 69.7984 27.5374C69.2165 27.8616 68.4876 28.0239 67.6116 28.0242ZM68.0429 26.2961C68.5349 26.2959 68.9549 26.2087 69.3028 26.0346C69.6508 25.8605 69.9267 25.6474 70.1306 25.3953C70.3405 25.1432 70.4814 24.9062 70.5534 24.6841C70.6673 24.4081 70.7301 24.0931 70.742 23.7391C70.7599 23.3791 70.7688 23.0881 70.7687 22.8661L71.4348 23.0638C70.7808 23.1661 70.2198 23.2563 69.7519 23.3344C69.2839 23.4126 68.8819 23.4878 68.5459 23.5599C68.21 23.626 67.913 23.7011 67.655 23.7852C67.4031 23.8753 67.1901 23.9804 67.0161 24.1004C66.8422 24.2205 66.7072 24.3585 66.6113 24.5146C66.5214 24.6706 66.4764 24.8536 66.4765 25.0636C66.4766 25.3036 66.5367 25.5166 66.6567 25.7026C66.7768 25.8825 66.9508 26.0265 67.1789 26.1344C67.4129 26.2423 67.7009 26.2962 68.0429 26.2961ZM78.8681 27.7501L78.8634 14.7901L82.9944 14.7886C83.1024 14.7886 83.3154 14.7915 83.6334 14.7974C83.9574 14.8033 84.2694 14.8242 84.5694 14.8601C85.5954 14.9917 86.4626 15.3574 87.1708 15.9571C87.885 16.5509 88.4253 17.3097 88.7916 18.2335C89.158 19.1574 89.3413 20.1683 89.3417 21.2663C89.3421 22.3643 89.1595 23.3754 88.7938 24.2995C88.4282 25.2237 87.8884 25.9858 87.1747 26.5861C86.4669 27.1804 85.6 27.5437 84.5741 27.6761C84.2801 27.7122 83.9711 27.7333 83.6471 27.7394C83.3231 27.7455 83.1071 27.7486 82.9991 27.7486L78.8681 27.7501ZM81.0723 25.7063L82.9983 25.7056C83.1783 25.7056 83.4063 25.6995 83.6823 25.6874C83.9643 25.6753 84.2133 25.6482 84.4293 25.6061C85.0413 25.4919 85.5392 25.2187 85.923 24.7866C86.3068 24.3544 86.5887 23.8293 86.7684 23.2113C86.9542 22.5932 87.047 21.9452 87.0467 21.2672C87.0465 20.5652 86.9532 19.9052 86.767 19.2873C86.5808 18.6693 86.2926 18.1504 85.9024 17.7306C85.5183 17.3107 85.0262 17.0439 84.4261 16.9301C84.2101 16.8822 83.9611 16.8553 83.6791 16.8494C83.4031 16.8375 83.1751 16.8316 82.9951 16.8316L81.0691 16.8323L81.0723 25.7063ZM95.8907 28.0139C94.9067 28.0143 94.0426 27.8016 93.2985 27.3759C92.5543 26.9502 91.9721 26.3594 91.5518 25.6035C91.1375 24.8477 90.9302 23.9777 90.9299 22.9937C90.9295 21.9317 91.1331 21.0107 91.5409 20.2305C91.9486 19.4444 92.5154 18.8352 93.2412 18.4029C93.967 17.9706 94.807 17.7543 95.761 17.754C96.769 17.7536 97.624 17.9903 98.3262 18.4641C99.0344 18.9318 99.5596 19.5946 99.9019 20.4525C100.244 21.3104 100.374 22.3213 100.29 23.4853L98.139 23.4861L98.1388 22.6941C98.1324 21.6381 97.9461 20.8672 97.5799 20.3813C97.2137 19.8955 96.6377 19.6527 95.8517 19.653C94.9637 19.6533 94.3038 19.9295 93.872 20.4817C93.4402 21.0278 93.2244 21.8289 93.2248 22.8849C93.2252 23.8689 93.4415 24.6308 93.8737 25.1707C94.3059 25.7105 94.936 25.9803 95.764 25.98C96.298 25.9798 96.7569 25.8626 97.1408 25.6285C97.5307 25.3883 97.8306 25.0432 98.0404 24.5932L100.183 25.2404C99.811 26.1165 99.2352 26.7977 98.4554 27.284C97.6816 27.7703 96.8267 28.0136 95.8907 28.0139ZM92.541 23.4882L92.5405 21.8502L99.2275 21.8477L99.228 23.4857L92.541 23.4882ZM113.709 27.7375L113.707 21.8335C113.707 21.1675 113.541 20.6485 113.211 20.2766C112.881 19.8988 112.434 19.7099 111.87 19.7101C111.522 19.7103 111.21 19.7914 110.934 19.9535C110.658 20.1096 110.439 20.3437 110.277 20.6557C110.116 20.9618 110.035 21.3278 110.035 21.7538L109.072 21.1872C109.065 20.5152 109.215 19.9241 109.521 19.414C109.833 18.8979 110.253 18.4957 110.781 18.2075C111.308 17.9193 111.896 17.7751 112.544 17.7749C113.618 17.7745 114.441 18.0982 115.011 18.746C115.587 19.3878 115.875 20.2337 115.876 21.2837L115.878 27.7367L113.709 27.7375ZM102.018 27.7417L102.015 18.0217L103.932 18.021L103.933 21.036L104.203 21.0359L104.205 27.7409L102.018 27.7417ZM107.877 27.7396L107.875 21.8626C107.875 21.1846 107.709 20.6566 107.379 20.2788C107.049 19.9009 106.599 19.7121 106.029 19.7123C105.477 19.7125 105.033 19.9016 104.697 20.2797C104.367 20.6579 104.203 21.1499 104.203 21.7559L103.231 21.1083C103.23 20.4783 103.386 19.9112 103.698 19.4071C104.01 18.903 104.43 18.5068 104.958 18.2186C105.491 17.9245 106.088 17.7772 106.748 17.777C107.474 17.7767 108.08 17.9325 108.567 18.2443C109.059 18.5502 109.425 18.97 109.665 19.5039C109.911 20.0318 110.034 20.6288 110.035 21.2948L110.037 27.7388L107.877 27.7396ZM122.36 28.0043C121.388 28.0047 120.539 27.786 119.813 27.3482C119.087 26.9105 118.523 26.3077 118.12 25.5399C117.724 24.766 117.526 23.8781 117.526 22.8761C117.525 21.8561 117.729 20.962 118.137 20.1939C118.544 19.4257 119.111 18.8255 119.837 18.3932C120.563 17.961 121.403 17.7447 122.357 17.7443C123.335 17.744 124.187 17.9627 124.913 18.4004C125.639 18.8381 126.203 19.4439 126.606 20.2178C127.008 20.9856 127.209 21.8706 127.21 22.8726C127.21 23.8806 127.006 24.7716 126.598 25.5458C126.197 26.3139 125.633 26.9171 124.907 27.3554C124.181 27.7877 123.332 28.004 122.36 28.0043ZM122.36 25.9703C123.224 25.97 123.866 25.6818 124.285 25.1056C124.705 24.5295 124.915 23.7854 124.915 22.8734C124.914 21.9314 124.701 21.1815 124.275 20.6236C123.849 20.0598 123.209 19.778 122.357 19.7783C121.775 19.7785 121.295 19.9107 120.918 20.1748C120.546 20.433 120.27 20.7961 120.09 21.2641C119.91 21.7262 119.82 22.2632 119.821 22.8752C119.821 23.8172 120.034 24.5702 120.46 25.134C120.893 25.6919 121.526 25.9706 122.36 25.9703Z" fill="white"/>
</g>
<defs>
<filter id="filter0_d_243_4" x="0.725235" y="0.727783" width="144.015" height="49.0493" filterUnits="userSpaceOnUse" color-interpolation-filters="sRGB">
<feFlood flood-opacity="0" result="BackgroundImageFix"/>
<feColorMatrix in="SourceAlpha" type="matrix" values="0 0 0 0 0 0 0 0 0 0 0 0 0 0 0 0 0 0 127 0" result="hardAlpha"/>
<feOffset dy="4"/>
<feGaussianBlur stdDeviation="2"/>
<feComposite in2="hardAlpha" operator="out"/>
<feColorMatrix type="matrix" values="0 0 0 0 0 0 0 0 0 0 0 0 0 0 0 0 0 0 0.25 0"/>
<feBlend mode="normal" in2="BackgroundImageFix" result="effect1_dropShadow_243_4"/>
<feBlend mode="normal" in="SourceGraphic" in2="effect1_dropShadow_243_4" result="shape"/>
</filter>
</defs>
</svg>
