<svg width="179" height="56" viewBox="0 0 179 56" fill="none" xmlns="http://www.w3.org/2000/svg">
<rect x="0.988464" y="0.432129" width="177.418" height="54.9876" rx="10" fill="white"/>
<path d="M40.6289 40.4125L29.9199 40.4145C29.4465 40.4146 28.9925 40.2266 28.6577 39.8919C28.3229 39.5573 28.1348 39.1033 28.1347 38.63L28.1342 35.9527L29.9191 35.9524L29.9195 38.6296L40.6285 38.6277L40.6246 17.2097L29.9157 17.2117L29.9161 19.8889L28.1313 19.8892L28.1308 17.212C28.1307 16.7386 28.3187 16.2846 28.6534 15.9498C28.988 15.6151 29.442 15.4269 29.9153 15.4268L40.6243 15.4249C41.0977 15.4248 41.5517 15.6128 41.8865 15.9474C42.2213 16.2821 42.4094 16.736 42.4095 17.2094L42.4134 38.6274C42.4134 39.1007 42.2255 39.5547 41.8908 39.8895C41.5562 40.2243 41.1022 40.4124 40.6289 40.4125Z" fill="#133F7D"/>
<path d="M30.4449 32.0167L33.6391 28.8124L20.9936 28.8147L20.9933 27.0299L33.6388 27.0276L30.4434 23.8244L31.7015 22.5658L37.0569 27.9194L31.7034 33.2748L30.4449 32.0167Z" fill="#133F7D"/>
<path d="M64.4009 25.1304C64.1128 24.6025 63.7167 24.2006 63.2127 23.9247C62.7086 23.6488 62.1206 23.5109 61.4486 23.511C60.7046 23.5111 60.0447 23.6792 59.4687 24.0153C58.8928 24.3514 58.4429 24.8315 58.119 25.4556C57.7951 26.0796 57.6332 26.7997 57.6334 27.6157C57.6335 28.4557 57.7957 29.1876 58.1198 29.8116C58.4559 30.4355 58.918 30.9154 59.506 31.2513C60.0941 31.5872 60.7781 31.7551 61.5581 31.755C62.5181 31.7548 63.3041 31.5026 63.916 30.9985C64.5279 30.4824 64.9298 29.7683 65.1216 28.8563L60.8016 28.8571L60.8012 26.9311L67.6052 26.9299L67.6056 29.1259C67.4378 30.0019 67.078 30.812 66.5261 31.5561C65.9742 32.3002 65.2603 32.9003 64.3844 33.3564C63.5205 33.8006 62.5485 34.0228 61.4685 34.023C60.2565 34.0232 59.1585 33.7534 58.1744 33.2136C57.2023 32.6618 56.4341 31.8999 55.87 30.928C55.3178 29.9561 55.0416 28.8521 55.0414 27.6161C55.0411 26.3801 55.3169 25.2761 55.8688 24.304C56.4326 23.3199 57.2005 22.5578 58.1724 22.0176C59.1563 21.4654 60.2482 21.1892 61.4482 21.189C62.8642 21.1887 64.0943 21.5365 65.1384 22.2323C66.1825 22.9161 66.9027 23.882 67.2989 25.1299L64.4009 25.1304ZM78.74 28.7098C78.74 29.0698 78.7161 29.3938 78.6682 29.6819L71.3782 29.6832C71.4383 30.4032 71.6904 30.9671 72.1345 31.375C72.5785 31.783 73.1246 31.9869 73.7726 31.9867C74.7086 31.9866 75.3745 31.5845 75.7704 30.7804L78.4884 30.7799C78.2005 31.7399 77.6487 32.532 76.8328 33.1562C76.0169 33.7683 75.0149 34.0745 73.8269 34.0747C72.8669 34.0749 72.0029 33.8651 71.2348 33.4452C70.4788 33.0133 69.8846 32.4074 69.4525 31.6275C69.0324 30.8476 68.8222 29.9476 68.822 28.9276C68.8218 27.8956 69.0317 26.9896 69.4515 26.2095C69.8714 25.4295 70.4593 24.8293 71.2152 24.4092C71.9711 23.9891 72.8411 23.7789 73.8251 23.7787C74.7731 23.7786 75.6191 23.9824 76.3632 24.3903C77.1193 24.7981 77.7014 25.38 78.1095 26.136C78.5296 26.8799 78.7398 27.7378 78.74 28.7098ZM76.1298 27.9903C76.1177 27.3423 75.8836 26.8264 75.4276 26.4424C74.9715 26.0465 74.4135 25.8486 73.7535 25.8487C73.1295 25.8489 72.6015 26.041 72.1696 26.425C71.7496 26.7971 71.4917 27.3192 71.3958 27.9912L76.1298 27.9903ZM83.5129 26.009L83.5137 30.833C83.5138 31.169 83.5918 31.415 83.7479 31.5709C83.9159 31.7149 84.1919 31.7868 84.5759 31.7868L85.7459 31.7866L85.7463 33.9106L84.1623 33.9109C82.0383 33.9112 80.9761 32.8794 80.9757 30.8154L80.9749 26.0094L79.7869 26.0096L79.7865 23.9396L80.9745 23.9394L80.974 21.4734L83.512 21.473L83.5125 23.939L85.7445 23.9386L85.7449 26.0086L83.5129 26.009ZM96.1859 34.0347C95.3099 34.0348 94.5179 33.885 93.8098 33.5851C93.1138 33.2852 92.5617 32.8533 92.1536 32.2894C91.7455 31.7255 91.5354 31.0595 91.5232 30.2915L94.2232 30.291C94.2593 30.807 94.4394 31.215 94.7634 31.5149C95.0995 31.8149 95.5555 31.9648 96.1315 31.9647C96.7195 31.9646 97.1815 31.8265 97.5174 31.5504C97.8534 31.2624 98.0213 30.8903 98.0212 30.4343C98.0212 30.0623 97.9071 29.7564 97.6791 29.5164C97.451 29.2764 97.163 29.0905 96.815 28.9586C96.4789 28.8146 96.0109 28.6587 95.4109 28.4908C94.5948 28.251 93.9288 28.0171 93.4128 27.7892C92.9087 27.5493 92.4707 27.1953 92.0986 26.7274C91.7385 26.2475 91.5584 25.6115 91.5582 24.8195C91.5581 24.0755 91.744 23.4275 92.1159 22.8754C92.4878 22.3233 93.0097 21.9032 93.6816 21.6151C94.3536 21.315 95.1216 21.1649 95.9856 21.1647C97.2816 21.1645 98.3316 21.4823 99.1357 22.1181C99.9518 22.742 100.402 23.6179 100.486 24.7459L97.7142 24.7464C97.6901 24.3144 97.5041 23.9604 97.156 23.6845C96.82 23.3966 96.3699 23.2526 95.8059 23.2527C95.3139 23.2528 94.918 23.3789 94.618 23.631C94.33 23.883 94.1861 24.249 94.1862 24.729C94.1863 25.065 94.2943 25.347 94.5104 25.575C94.7384 25.7909 95.0144 25.9709 95.3385 26.1148C95.6745 26.2468 96.1425 26.4027 96.7425 26.5826C97.5586 26.8224 98.2246 27.0623 98.7407 27.3022C99.2567 27.5421 99.7008 27.902 100.073 28.382C100.445 28.8619 100.631 29.4919 100.631 30.2719C100.631 30.9439 100.457 31.5679 100.11 32.144C99.7617 32.72 99.2517 33.1821 98.5798 33.5302C97.9079 33.8664 97.1099 34.0345 96.1859 34.0347ZM105.749 26.0049L105.75 30.8289C105.75 31.1649 105.828 31.4109 105.984 31.5669C106.152 31.7109 106.428 31.7828 106.812 31.7827L107.982 31.7825L107.983 33.9065L106.399 33.9068C104.275 33.9072 103.212 32.8754 103.212 30.8114L103.211 26.0054L102.023 26.0056L102.023 23.9356L103.211 23.9354L103.21 21.4694L105.748 21.4689L105.749 23.9349L107.981 23.9345L107.981 26.0045L105.749 26.0049ZM109.146 28.8843C109.146 27.8763 109.344 26.9823 109.74 26.2022C110.148 25.4221 110.693 24.822 111.377 24.4019C112.073 23.9818 112.847 23.7716 113.699 23.7715C114.443 23.7714 115.091 23.9212 115.643 24.2211C116.207 24.521 116.657 24.899 116.994 25.3549L116.993 23.9329L119.531 23.9324L119.533 33.9044L116.995 33.9049L116.995 32.4469C116.671 32.9149 116.221 33.305 115.645 33.6171C115.081 33.9172 114.427 34.0674 113.683 34.0675C112.843 34.0676 112.075 33.8518 111.379 33.4199C110.695 32.988 110.149 32.3821 109.741 31.6022C109.345 30.8103 109.146 29.9043 109.146 28.8843ZM116.994 28.9189C116.994 28.3069 116.874 27.7849 116.634 27.353C116.394 26.909 116.07 26.5731 115.662 26.3451C115.254 26.1052 114.816 25.9853 114.348 25.9854C113.88 25.9855 113.448 26.0995 113.052 26.3276C112.656 26.5557 112.332 26.8917 112.08 27.3358C111.84 27.7678 111.72 28.2838 111.72 28.8838C111.72 29.4838 111.84 30.0118 112.081 30.4678C112.333 30.9117 112.657 31.2537 113.053 31.4936C113.461 31.7335 113.893 31.8535 114.349 31.8534C114.817 31.8533 115.255 31.7392 115.663 31.5111C116.071 31.2711 116.395 30.935 116.635 30.503C116.874 30.0589 116.994 29.5309 116.994 28.9189ZM124.513 25.4795C124.837 24.9515 125.257 24.5374 125.773 24.2373C126.301 23.9372 126.901 23.7871 127.573 23.787L127.573 26.433L126.907 26.4331C126.115 26.4332 125.515 26.6193 125.107 26.9914C124.711 27.3635 124.513 28.0115 124.513 28.9355L124.514 33.9035L121.994 33.904L121.993 23.932L124.513 23.9315L124.513 25.4795ZM132.204 26.0001L132.205 30.8241C132.205 31.1601 132.283 31.4061 132.439 31.5621C132.607 31.7061 132.883 31.778 133.267 31.7779L134.437 31.7777L134.438 33.9017L132.854 33.902C130.73 33.9024 129.668 32.8706 129.667 30.8066L129.666 26.0006L128.478 26.0008L128.478 23.9308L129.666 23.9306L129.665 21.4646L132.203 21.4641L132.204 23.9301L134.436 23.9297L134.436 25.9997L132.204 26.0001ZM145.519 28.6977C145.519 29.0577 145.495 29.3817 145.447 29.6697L138.157 29.671C138.218 30.391 138.47 30.955 138.914 31.3629C139.358 31.7708 139.904 31.9747 140.552 31.9746C141.488 31.9744 142.154 31.5723 142.55 30.7682L145.268 30.7678C144.98 31.7278 144.428 32.5199 143.612 33.1441C142.796 33.7562 141.794 34.0624 140.606 34.0626C139.646 34.0628 138.782 33.8529 138.014 33.4331C137.258 33.0012 136.664 32.3953 136.232 31.6154C135.812 30.8355 135.601 29.9355 135.601 28.9155C135.601 27.8835 135.811 26.9775 136.231 26.1974C136.651 25.4173 137.239 24.8172 137.994 24.3971C138.75 23.9769 139.62 23.7668 140.604 23.7666C141.552 23.7664 142.398 23.9703 143.142 24.3781C143.899 24.786 144.481 25.3679 144.889 26.1238C145.309 26.8677 145.519 27.7257 145.519 28.6977ZM142.909 27.9782C142.897 27.3302 142.663 26.8142 142.207 26.4303C141.751 26.0344 141.193 25.8365 140.533 25.8366C139.909 25.8367 139.381 26.0288 138.949 26.4129C138.529 26.785 138.271 27.307 138.175 27.979L142.909 27.9782ZM146.711 28.8775C146.71 27.8695 146.908 26.9755 147.304 26.1954C147.712 25.4153 148.264 24.8152 148.96 24.3951C149.656 23.975 150.43 23.7648 151.282 23.7647C151.93 23.7645 152.548 23.9084 153.136 24.1963C153.724 24.4722 154.192 24.8441 154.54 25.3121L154.539 20.5781L157.095 20.5776L157.098 33.8976L154.542 33.8981L154.541 32.4221C154.229 32.9141 153.791 33.3102 153.228 33.6103C152.664 33.9104 152.01 34.0605 151.266 34.0607C150.426 34.0608 149.658 33.845 148.961 33.4131C148.265 32.9812 147.713 32.3753 147.305 31.5954C146.909 30.8035 146.711 29.8975 146.711 28.8775ZM154.559 28.9121C154.559 28.3001 154.438 27.7781 154.198 27.3461C153.958 26.9022 153.634 26.5662 153.226 26.3383C152.818 26.0984 152.38 25.9785 151.912 25.9785C151.444 25.9786 151.012 26.0927 150.616 26.3208C150.22 26.5489 149.896 26.8849 149.644 27.329C149.404 27.761 149.285 28.277 149.285 28.877C149.285 29.477 149.405 30.005 149.645 30.461C149.897 30.9049 150.221 31.2469 150.617 31.4868C151.025 31.7267 151.457 31.8466 151.913 31.8465C152.381 31.8465 152.819 31.7324 153.227 31.5043C153.635 31.2642 153.959 30.9282 154.199 30.4961C154.439 30.0521 154.559 29.5241 154.559 28.9121Z" fill="#133F7D"/>
</svg>
