<svg width="76" height="22" viewBox="0 0 76 22" fill="none" xmlns="http://www.w3.org/2000/svg">
<path d="M8.99164 0.935547C6.23464 0.935547 3.99164 3.17855 3.99164 5.93555L3.99164 8.93555L2.99164 8.93555C1.88864 8.93555 0.991638 9.83255 0.991638 10.9355L0.991638 18.9355C0.991638 20.0385 1.88864 20.9355 2.99164 20.9355L14.9916 20.9355C16.0946 20.9355 16.9916 20.0385 16.9916 18.9355L16.9916 10.9355C16.9916 9.83255 16.0946 8.93555 14.9916 8.93555L13.9916 8.93555L13.9916 5.93555C13.9916 3.17855 11.7486 0.935547 8.99164 0.935547ZM14.9916 10.9355L14.9936 18.9355L2.99164 18.9355L2.99164 10.9355L14.9916 10.9355ZM5.99164 8.93555L5.99164 5.93555C5.99164 4.28155 7.33764 2.93555 8.99164 2.93555C10.6456 2.93555 11.9916 4.28155 11.9916 5.93555L11.9916 8.93555L5.99164 8.93555Z" fill="white"/>
<path d="M30.7536 14.9375L34.8936 14.9375L34.8936 16.9355L28.2336 16.9355L28.2336 4.37155L30.7536 4.37155L30.7536 14.9375ZM40.9234 17.0975C39.9634 17.0975 39.0994 16.8875 38.3314 16.4675C37.5634 16.0355 36.9574 15.4295 36.5134 14.6495C36.0814 13.8695 35.8654 12.9695 35.8654 11.9495C35.8654 10.9295 36.0874 10.0295 36.5314 9.24955C36.9874 8.46955 37.6054 7.86955 38.3854 7.44955C39.1654 7.01755 40.0354 6.80155 40.9954 6.80155C41.9554 6.80155 42.8254 7.01755 43.6054 7.44955C44.3854 7.86955 44.9974 8.46955 45.4414 9.24955C45.8974 10.0295 46.1254 10.9295 46.1254 11.9495C46.1254 12.9695 45.8914 13.8695 45.4234 14.6495C44.9674 15.4295 44.3434 16.0355 43.5514 16.4675C42.7714 16.8875 41.8954 17.0975 40.9234 17.0975ZM40.9234 14.9015C41.3794 14.9015 41.8054 14.7935 42.2014 14.5775C42.6094 14.3495 42.9334 14.0135 43.1734 13.5695C43.4134 13.1255 43.5334 12.5855 43.5334 11.9495C43.5334 11.0015 43.2814 10.2755 42.7774 9.77155C42.2854 9.25555 41.6794 8.99755 40.9594 8.99755C40.2394 8.99755 39.6334 9.25555 39.1414 9.77155C38.6614 10.2755 38.4214 11.0015 38.4214 11.9495C38.4214 12.8975 38.6554 13.6295 39.1234 14.1455C39.6034 14.6495 40.2034 14.9015 40.9234 14.9015ZM51.8799 6.80155C52.6239 6.80155 53.2779 6.95155 53.8419 7.25155C54.4059 7.53955 54.8499 7.91755 55.1739 8.38555L55.1739 6.96355L57.7119 6.96355L57.7119 17.0075C57.7119 17.9315 57.5259 18.7535 57.1539 19.4735C56.7819 20.2055 56.2239 20.7815 55.4799 21.2015C54.7359 21.6335 53.8359 21.8495 52.7799 21.8495C51.3639 21.8495 50.1999 21.5195 49.2879 20.8595C48.3879 20.1995 47.8779 19.2995 47.7579 18.1595L50.2599 18.1595C50.3919 18.6155 50.6739 18.9755 51.1059 19.2395C51.5499 19.5155 52.0839 19.6535 52.7079 19.6535C53.4399 19.6535 54.0339 19.4315 54.4899 18.9875C54.9459 18.5555 55.1739 17.8955 55.1739 17.0075L55.1739 15.4595C54.8499 15.9275 54.3999 16.3175 53.8239 16.6295C53.2599 16.9415 52.6119 17.0975 51.8799 17.0975C51.0399 17.0975 50.2719 16.8815 49.5759 16.4495C48.8799 16.0175 48.3279 15.4115 47.9199 14.6315C47.5239 13.8395 47.3259 12.9335 47.3259 11.9135C47.3259 10.9055 47.5239 10.0115 47.9199 9.23155C48.3279 8.45155 48.8739 7.85155 49.5579 7.43155C50.2539 7.01155 51.0279 6.80155 51.8799 6.80155ZM55.1739 11.9495C55.1739 11.3375 55.0539 10.8155 54.8139 10.3835C54.5739 9.93955 54.2499 9.60355 53.8419 9.37555C53.4339 9.13555 52.9959 9.01555 52.5279 9.01555C52.0599 9.01555 51.6279 9.12955 51.2319 9.35755C50.8359 9.58555 50.5119 9.92155 50.2599 10.3655C50.0199 10.7975 49.8999 11.3135 49.8999 11.9135C49.8999 12.5135 50.0199 13.0415 50.2599 13.4975C50.5119 13.9415 50.8359 14.2835 51.2319 14.5235C51.6399 14.7635 52.0719 14.8835 52.5279 14.8835C52.9959 14.8835 53.4339 14.7695 53.8419 14.5415C54.2499 14.3015 54.5739 13.9655 54.8139 13.5335C55.0539 13.0895 55.1739 12.5615 55.1739 11.9495ZM61.4511 5.77555C61.0071 5.77555 60.6351 5.63755 60.3351 5.36155C60.0471 5.07355 59.9031 4.71955 59.9031 4.29955C59.9031 3.87955 60.0471 3.53155 60.3351 3.25555C60.6351 2.96755 61.0071 2.82355 61.4511 2.82355C61.8951 2.82355 62.2611 2.96755 62.5491 3.25555C62.8491 3.53155 62.9991 3.87955 62.9991 4.29955C62.9991 4.71955 62.8491 5.07355 62.5491 5.36155C62.2611 5.63755 61.8951 5.77555 61.4511 5.77555ZM62.6931 6.96355L62.6931 16.9355L60.1731 16.9355L60.1731 6.96355L62.6931 6.96355ZM70.7089 6.81955C71.8969 6.81955 72.8569 7.19755 73.5889 7.95355C74.3209 8.69755 74.6869 9.74155 74.6869 11.0855L74.6869 16.9355L72.1669 16.9355L72.1669 11.4275C72.1669 10.6355 71.9689 10.0295 71.5729 9.60955C71.1769 9.17755 70.6369 8.96155 69.9529 8.96155C69.2569 8.96155 68.7049 9.17755 68.2969 9.60955C67.9009 10.0295 67.7029 10.6355 67.7029 11.4275L67.7029 16.9355L65.1829 16.9355L65.1829 6.96355L67.7029 6.96355L67.7029 8.20555C68.0389 7.77355 68.4649 7.43755 68.9809 7.19755C69.5089 6.94555 70.0849 6.81955 70.7089 6.81955Z" fill="white"/>
</svg>
