<svg width="112" height="53" viewBox="0 0 112 53" fill="none" xmlns="http://www.w3.org/2000/svg">
<path d="M0.954102 41.1259L0.954102 27.312C0.954102 26.5944 1.11756 26.0562 1.44447 25.6974C1.77137 25.3386 2.19396 25.1592 2.71223 25.1592C3.24645 25.1592 3.67702 25.3386 4.00392 25.6974C4.33881 26.0482 4.50625 26.5864 4.50625 27.312L4.50625 41.1259C4.50625 41.8515 4.33881 42.3937 4.00392 42.7525C3.67702 43.1113 3.24645 43.2907 2.71223 43.2907C2.20194 43.2907 1.77935 43.1113 1.44447 42.7525C1.11756 42.3857 0.954102 41.8435 0.954102 41.1259Z" fill="white"/>
<path d="M10.9328 31.6502L15.865 39.1133L15.865 31.5811C15.865 31.0916 15.9687 30.7259 16.176 30.4841C16.3891 30.2365 16.6741 30.1127 17.0311 30.1127C17.3997 30.1127 17.6905 30.2365 17.9036 30.4841C18.1166 30.7259 18.2232 31.0916 18.2232 31.5811L18.2232 41.5405C18.2232 42.6519 17.7625 43.2076 16.8411 43.2076C16.6108 43.2076 16.4035 43.1731 16.2192 43.104C16.0349 43.0406 15.8622 42.937 15.7009 42.793C15.5397 42.649 15.39 42.482 15.2518 42.292C15.1135 42.0962 14.9753 41.8975 14.8371 41.696L10.0259 34.3193L10.0259 41.7392C10.0259 42.2229 9.91356 42.5886 9.68898 42.8362C9.4644 43.0838 9.17647 43.2076 8.8252 43.2076C8.46241 43.2076 8.1716 43.0838 7.95277 42.8362C7.73395 42.5828 7.62454 42.2171 7.62454 41.7392L7.62454 31.9698C7.62454 31.5552 7.6706 31.2298 7.76274 30.9937C7.87215 30.7346 8.05355 30.5244 8.30693 30.3631C8.5603 30.1961 8.83383 30.1127 9.12752 30.1127C9.35786 30.1127 9.55365 30.1501 9.71489 30.2249C9.88189 30.2998 10.0259 30.4006 10.1468 30.5273C10.2735 30.654 10.4002 30.8181 10.5269 31.0196C10.6593 31.2212 10.7946 31.4314 10.9328 31.6502Z" fill="white"/>
<path d="M36.2348 37.4542C36.2348 38.0123 36.0953 38.6183 35.8162 39.2721C35.5451 39.9179 35.1146 40.5558 34.5245 41.1857C33.9345 41.8076 33.181 42.3139 32.2641 42.7046C31.3471 43.0953 30.2787 43.2907 29.0588 43.2907C28.1339 43.2907 27.2927 43.203 26.5352 43.0276C25.7777 42.8521 25.088 42.581 24.4661 42.2143C23.8521 41.8395 23.286 41.3492 22.7678 40.7432C22.3053 40.193 21.9106 39.5791 21.5837 38.9013C21.2568 38.2156 21.0096 37.486 20.8422 36.7126C20.6827 35.9392 20.603 35.1179 20.603 34.2488C20.603 32.8376 20.8063 31.5738 21.213 30.4575C21.6276 29.3412 22.2176 28.3884 22.983 27.599C23.7485 26.8017 24.6455 26.1957 25.6741 25.7811C26.7026 25.3665 27.799 25.1592 28.9631 25.1592C30.3824 25.1592 31.6461 25.4422 32.7544 26.0083C33.8627 26.5745 34.7119 27.2761 35.3019 28.1133C35.892 28.9426 36.187 29.7279 36.187 30.4695C36.187 30.8761 36.0435 31.2349 35.7564 31.5459C35.4694 31.8568 35.1225 32.0123 34.7159 32.0123C34.2614 32.0123 33.9186 31.9047 33.6873 31.6894C33.4641 31.4741 33.2129 31.1033 32.9338 30.5771C32.4714 29.708 31.9252 29.0582 31.2953 28.6276C30.6734 28.197 29.904 27.9818 28.987 27.9818C27.5279 27.9818 26.3638 28.5359 25.4947 29.6442C24.6335 30.7525 24.203 32.3273 24.203 34.3684C24.203 35.7319 24.3943 36.8681 24.7771 37.7771C25.1598 38.6781 25.702 39.3518 26.4036 39.7983C27.1053 40.2448 27.9265 40.4681 28.8674 40.4681C29.888 40.4681 30.7491 40.2169 31.4508 39.7146C32.1604 39.2043 32.6946 38.4588 33.0534 37.4781C33.2049 37.0156 33.3923 36.6409 33.6156 36.3538C33.8388 36.0588 34.1976 35.9113 34.692 35.9113C35.1146 35.9113 35.4774 36.0588 35.7803 36.3538C36.0833 36.6488 36.2348 37.0156 36.2348 37.4542Z" fill="white"/>
<path d="M55.8082 37.7571L55.8082 31.6675C55.8082 31.1492 55.9234 30.7605 56.1537 30.5014C56.3898 30.2422 56.6979 30.1127 57.078 30.1127C57.4753 30.1127 57.7892 30.2422 58.0195 30.5014C58.2556 30.7605 58.3737 31.1492 58.3737 31.6675L58.3737 37.8953C58.3737 38.6037 58.4514 39.1968 58.6069 39.6747C58.7681 40.1469 59.0503 40.5155 59.4534 40.7804C59.8565 41.0395 60.4208 41.1691 61.1464 41.1691C62.1484 41.1691 62.8567 40.9042 63.2713 40.3744C63.6859 39.8389 63.8933 39.0298 63.8933 37.9472L63.8933 31.6675C63.8933 31.1434 64.0084 30.7547 64.2388 30.5014C64.4691 30.2422 64.7772 30.1127 65.163 30.1127C65.5488 30.1127 65.8598 30.2422 66.0959 30.5014C66.3378 30.7547 66.4587 31.1434 66.4587 31.6675L66.4587 37.7571C66.4587 38.7476 66.3608 39.574 66.165 40.2362C65.975 40.8984 65.6122 41.4801 65.0766 41.981C64.616 42.4072 64.0804 42.7181 63.47 42.9139C62.8596 43.1097 62.1455 43.2076 61.3278 43.2076C60.3546 43.2076 59.5167 43.104 58.8142 42.8967C58.1117 42.6836 57.5387 42.3582 57.0953 41.9206C56.6519 41.4772 56.3265 40.9128 56.1192 40.2276C55.9119 39.5365 55.8082 38.7131 55.8082 37.7571Z" fill="white"/>
<path d="M69.0697 41.6442L69.0697 31.6675C69.0697 31.1492 69.1878 30.7605 69.4239 30.5014C69.66 30.2422 69.9652 30.1127 70.3395 30.1127C70.7253 30.1127 71.0363 30.2422 71.2724 30.5014C71.5143 30.7547 71.6352 31.1434 71.6352 31.6675L71.6352 41.6442C71.6352 42.1682 71.5143 42.5598 71.2724 42.8189C71.0363 43.0781 70.7253 43.2076 70.3395 43.2076C69.971 43.2076 69.6657 43.0781 69.4239 42.8189C69.1878 42.554 69.0697 42.1624 69.0697 41.6442Z" fill="white"/>
<path d="M82.4695 32.4449L79.6708 32.4449L79.6708 41.6442C79.6708 42.174 79.5527 42.5684 79.3166 42.8276C79.0805 43.0809 78.7753 43.2076 78.401 43.2076C78.021 43.2076 77.71 43.0781 77.4681 42.8189C77.232 42.5598 77.114 42.1682 77.114 41.6442L77.114 32.4449L74.3153 32.4449C73.8777 32.4449 73.5523 32.3499 73.3393 32.1598C73.1262 31.964 73.0197 31.7078 73.0197 31.3911C73.0197 31.0628 73.1291 30.8037 73.3479 30.6136C73.5725 30.4236 73.895 30.3286 74.3153 30.3286L82.4695 30.3286C82.9129 30.3286 83.2411 30.4265 83.4542 30.6223C83.673 30.8181 83.7824 31.0743 83.7824 31.3911C83.7824 31.7078 83.673 31.964 83.4542 32.1598C83.2353 32.3499 82.9071 32.4449 82.4695 32.4449Z" fill="white"/>
<path d="M93.3815 32.3067L87.6028 32.3067L87.6028 35.4163L92.9237 35.4163C93.3152 35.4163 93.6061 35.5055 93.7961 35.6841C93.9919 35.8568 94.0898 36.0872 94.0898 36.3751C94.0898 36.663 93.9948 36.8991 93.8047 37.0834C93.6147 37.2619 93.321 37.3512 92.9237 37.3512L87.6028 37.3512L87.6028 40.9531L93.5801 40.9531C93.9832 40.9531 94.2856 41.0482 94.4871 41.2382C94.6944 41.4225 94.7981 41.6701 94.7981 41.981C94.7981 42.2805 94.6944 42.5252 94.4871 42.7153C94.2856 42.8995 93.9832 42.9917 93.5801 42.9917L86.6094 42.9917C86.0508 42.9917 85.6477 42.8679 85.4001 42.6202C85.1582 42.3726 85.0373 41.9724 85.0373 41.4196L85.0373 31.9007C85.0373 31.5321 85.092 31.2327 85.2014 31.0023C85.3108 30.7662 85.4807 30.5964 85.7111 30.4927C85.9472 30.3833 86.2466 30.3286 86.6094 30.3286L93.3815 30.3286C93.7903 30.3286 94.0927 30.4207 94.2884 30.605C94.49 30.7835 94.5908 31.0196 94.5908 31.3133C94.5908 31.6128 94.49 31.8546 94.2884 32.0389C94.0927 32.2174 93.7903 32.3067 93.3815 32.3067Z" fill="white"/>
<path d="M100.018 37.5757L99.1194 37.5757L99.1194 41.6442C99.1194 42.1797 99.0014 42.5742 98.7653 42.8276C98.5292 43.0809 98.2211 43.2076 97.841 43.2076C97.4322 43.2076 97.1154 43.0752 96.8908 42.8103C96.6663 42.5454 96.554 42.1567 96.554 41.6442L96.554 31.9007C96.554 31.3479 96.6778 30.9476 96.9254 30.7C97.173 30.4524 97.5732 30.3286 98.1261 30.3286L102.298 30.3286C102.874 30.3286 103.366 30.3545 103.775 30.4063C104.184 30.4524 104.553 30.5503 104.881 30.7C105.278 30.867 105.629 31.106 105.935 31.417C106.24 31.7279 106.47 32.0907 106.626 32.5053C106.787 32.9142 106.868 33.349 106.868 33.8096C106.868 34.7541 106.6 35.5084 106.064 36.0728C105.534 36.6371 104.728 37.0373 103.646 37.2734C104.101 37.5153 104.535 37.8723 104.95 38.3445C105.365 38.8167 105.733 39.3206 106.056 39.8561C106.384 40.3859 106.637 40.8668 106.816 41.2987C107 41.7248 107.092 42.0185 107.092 42.1797C107.092 42.3467 107.037 42.5137 106.928 42.6807C106.824 42.842 106.68 42.9686 106.496 43.0608C106.312 43.1587 106.099 43.2076 105.857 43.2076C105.569 43.2076 105.327 43.1385 105.131 43.0003C104.936 42.8679 104.766 42.698 104.622 42.4907C104.484 42.2834 104.293 41.9782 104.052 41.5751L103.024 39.8648C102.655 39.2371 102.324 38.7591 102.03 38.4309C101.742 38.1027 101.449 37.8781 101.149 37.7571C100.85 37.6362 100.473 37.5757 100.018 37.5757ZM101.486 32.2548L99.1194 32.2548L99.1194 35.7359L101.417 35.7359C102.033 35.7359 102.552 35.6841 102.972 35.5804C103.392 35.471 103.712 35.2896 103.931 35.0362C104.155 34.7771 104.268 34.4229 104.268 33.9738C104.268 33.6225 104.178 33.3144 104 33.0495C103.821 32.7789 103.574 32.5773 103.257 32.4449C102.957 32.3182 102.367 32.2548 101.486 32.2548Z" fill="white"/>
<path d="M45.8053 32.545C46.6842 32.545 47.5387 32.8345 48.2367 33.3687L50.4834 35.0886C50.9685 35.4717 51.2083 35.711 51.6006 36.1985L55.8392 42.7115C55.8694 42.7579 55.8361 42.8193 55.7807 42.8193L51.9947 42.8193L48.1326 36.9604C47.9676 36.7382 47.8125 36.5545 47.657 36.3985C46.7607 35.4995 45.3561 35.4626 44.0866 35.4626L44.5967 33.897C44.6548 33.7185 44.6539 33.5261 44.5939 33.3482L44.3541 32.637C44.3389 32.5918 44.3725 32.545 44.4202 32.545L45.8053 32.545Z" fill="white"/>
<path d="M43.2151 29.7146C43.2151 28.8964 43.8784 28.2331 44.6966 28.2331L48.6889 28.2331C51.0851 28.5044 51.7 31.1904 49.7017 32.2187C49.0698 32.5438 48.3316 32.545 47.621 32.545C47.5878 32.545 47.5734 32.5871 47.5997 32.6074L50.6088 34.9331C50.6672 34.9783 50.7473 34.9887 50.8154 34.9604C56.2762 32.6978 54.5884 25.4705 49.0503 25.4705L40.3882 25.4705C40.1955 25.4705 40.0394 25.6266 40.0394 25.8193L40.0394 30.5629C40.0394 30.6177 40.0714 30.6675 40.1214 30.6901L40.2433 30.7452C40.3268 30.783 40.3941 30.8494 40.4326 30.9327C40.9538 32.06 41.5517 33.4333 42.6517 34.0833C42.7227 34.1313 42.7608 34.1717 42.7844 34.2303C42.8099 34.2933 42.8047 34.3637 42.7931 34.4306L42.6784 35.0958C42.6611 35.1961 42.6107 35.2876 42.5351 35.3557L41.9292 35.9017C41.6936 36.1374 41.5962 36.7752 41.7893 36.9306C41.8233 36.958 41.871 36.9487 41.9092 36.9274L43.5226 36.0302C43.6161 35.9783 43.6861 35.8923 43.7186 35.7904C43.9681 35.0066 44.1339 34.5288 44.395 33.7758L44.4166 33.7135C44.4634 33.5787 44.4489 33.43 44.3769 33.3068L44.0255 32.7058C43.4948 31.7983 43.2151 30.7659 43.2151 29.7146Z" fill="white"/>
<path d="M37.7018 35.7737L38.6849 35.1579C38.7577 35.1123 38.8401 35.0828 38.9258 35.0782C39.2883 35.0587 39.3643 35.15 39.2264 35.4469C39.1895 35.5263 39.1285 35.5918 39.0564 35.6416L38.0273 36.353C37.9168 36.4294 37.7758 36.4732 37.6535 36.4174C37.5373 36.3644 37.4874 36.2797 37.4803 36.1417C37.4725 35.9889 37.5722 35.8549 37.7018 35.7737Z" fill="white"/>
<path d="M38.2814 36.5249L39.1579 35.9162C39.2641 35.8425 39.3856 35.7911 39.5141 35.7765C40.0926 35.7104 40.17 35.8779 39.9092 36.3776C39.8487 36.4935 39.7568 36.5898 39.6488 36.6633L38.7388 37.2826C38.6565 37.3387 38.5593 37.3733 38.4599 37.3663C38.1576 37.3453 38.0565 37.2127 38.0708 36.8832C38.0772 36.7375 38.1616 36.6081 38.2814 36.5249Z" fill="white"/>
<path d="M40.1496 36.7906C40.2606 36.8385 40.3036 36.9156 40.2821 37.0531C40.2621 37.1804 40.1724 37.2833 40.0684 37.3593L39.4117 37.8391C39.3508 37.8837 39.2811 37.9162 39.2062 37.9259C38.9428 37.9598 38.8549 37.8807 38.8661 37.6503C38.8727 37.5135 38.9563 37.3944 39.0683 37.3157L39.6863 36.881C39.8225 36.7852 39.9967 36.7246 40.1496 36.7906Z" fill="white"/>
<path d="M40.5277 42.8211L42.7268 42.8211C42.9965 42.8211 43.2151 42.6024 43.2151 42.3327L43.2151 36.5321C43.2151 36.5053 43.1862 36.4885 43.163 36.5018L41.9292 37.2055C41.214 37.3652 41.3423 35.8213 42.4063 35.1306C42.4476 35.1038 42.474 35.0584 42.474 35.0091L42.474 34.4074C42.474 34.3578 42.4529 34.3105 42.416 34.2774L41.5505 33.5022C41.5137 33.4693 41.4831 33.4301 41.46 33.3865L40.252 31.1085C40.236 31.0783 40.2142 31.0514 40.1861 31.032C39.7418 30.7253 39.3474 31.1147 39.4224 31.4619C39.4243 31.4708 39.4273 31.4795 39.4309 31.4879L40.2244 33.347C40.2267 33.3522 40.2283 33.3577 40.229 33.3634C40.2482 33.5241 40.0609 33.5738 39.99 33.4524L39.243 31.6579C39.2233 31.6104 39.188 31.5875 39.1273 31.5741C38.7584 31.4922 38.34 31.7341 38.4619 32.2123C38.4749 32.2635 38.4855 32.3167 38.5077 32.3647L39.2498 33.9694C39.2951 34.0806 39.1577 34.1748 39.0793 34.0897C39.0756 34.0856 39.0726 34.0807 39.0703 34.0757L38.4094 32.6663C38.3747 32.5923 38.2995 32.5424 38.2187 32.5541C37.9367 32.5951 37.8636 32.778 37.8844 33.1964C37.8896 33.301 37.9212 33.4024 37.971 33.4946L38.4042 34.2818C38.42 34.3111 38.4319 34.33 38.4548 34.3646C38.5665 34.5336 38.5709 34.538 38.7628 34.7843C38.7887 34.8102 38.8245 34.8332 38.8614 34.8324C39.2924 34.8228 39.473 34.9234 39.5116 35.4037C39.5143 35.4376 39.5405 35.4654 39.5742 35.4698C40.2713 35.5611 40.4311 35.7783 40.151 36.4868C40.1369 36.5226 40.1537 36.5633 40.1885 36.5797C40.4919 36.7229 40.5462 36.8971 40.38 37.3491C40.3754 37.3616 40.3671 37.3727 40.3564 37.3807L40.0674 37.5968C40.0497 37.61 40.0394 37.6307 40.0394 37.6527L40.0394 42.3327C40.0394 42.6024 40.258 42.8211 40.5277 42.8211Z" fill="white"/>
<circle cx="72.8309" cy="11.3522" r="2.37466" fill="white" stroke="white"/>
<path d="M77.5481 23.2L72.9699 28.5234L68.2886 23.2132L68.2886 18.1027C68.2531 17.5704 68.4803 16.4205 69.6727 16.0798C70.8652 15.7391 71.4472 15.7249 71.5892 15.7604L71.5892 17.3574C71.2697 17.3574 71.2697 17.4639 71.2697 17.9962L71.2697 20.5515L72.9699 22.987L74.5669 20.5382L74.5669 17.983C74.5669 17.4506 74.5669 17.3442 74.2475 17.3442L74.2475 15.7471C74.3895 15.7117 74.9715 15.7259 76.164 16.0666C77.3564 16.4073 77.5836 17.5571 77.5481 18.0895L77.5481 23.2Z" fill="white" stroke="white" stroke-linecap="round"/>
<path d="M68.0363 14.4136C67.7605 14.6237 67.5266 14.8615 67.3332 15.1429C67.024 15.5928 66.8419 16.1193 66.7277 16.7474C66.7063 16.865 66.6908 17.1357 66.6774 17.4416C66.6631 17.7684 66.6497 18.1885 66.6392 18.6421C66.6324 18.9349 66.6268 19.243 66.6229 19.5503C66.3319 19.0917 66.0145 18.5948 65.7373 18.1635C64.7986 16.7034 64.0373 15.1438 63.5548 13.6975C63.4458 13.371 63.2114 12.3584 63.0983 11.1269C62.9848 9.89263 63.0001 8.50628 63.3448 7.40386C63.847 5.79757 64.7492 4.38279 66.3909 2.94632C67.1827 2.25348 69.2056 0.829351 72.4654 0.727484C75.7211 0.625744 77.8456 1.94681 78.7438 2.64534C80.8112 4.25323 81.6727 6.27209 82.1911 8.03456C82.6823 9.7047 82.4981 12.458 81.3585 15.1515C80.7398 16.614 79.9115 18.1996 79.2183 19.3638L79.2183 16.8369L79.2183 16.7931L79.2107 16.75C79.1373 16.3344 78.8578 15.8005 78.4818 15.3221C78.2232 14.9931 77.8966 14.6613 77.5139 14.3888C78.2597 13.574 78.6863 12.7915 78.9253 12.066C79.2083 11.2072 79.2178 10.4574 79.2183 9.90312L79.2183 9.90163C79.2103 6.2806 76.2724 3.34768 72.6496 3.34768C69.0218 3.34768 66.0808 6.2886 66.0808 9.9164C66.0808 11.0448 66.4883 12.1077 66.9792 12.9606C67.3105 13.5364 67.6904 14.0348 68.0363 14.4136Z" fill="white" stroke="white"/>
<path d="M72.1731 19.7232L72.6709 16.7361L73.1688 16.7361L73.6666 19.7232L72.8701 20.8185L72.1731 19.7232Z" fill="white"/>
<circle cx="72.9205" cy="16.3367" r="0.497851" fill="white"/>
<path d="M6.38385 52.1503L6.38385 49.348L5.3606 49.348L5.3606 48.6876L8.27686 48.6876L8.27686 49.348L7.25361 49.348L7.25361 52.1503L6.38385 52.1503Z" fill="white"/>
<path d="M9.25416 52.1503L9.25416 48.6876L11.596 48.6876L11.596 49.348L10.1193 49.348L10.1193 49.955L11.4797 49.955L11.4797 50.6155L10.1193 50.6155L10.1193 51.4899L11.596 51.4899L11.596 52.1503L9.25416 52.1503Z" fill="white"/>
<path d="M14.2966 52.2178C13.7772 52.2178 13.3648 52.0612 13.0594 51.748C12.7539 51.4333 12.6012 50.9914 12.6012 50.4224C12.6012 49.8736 12.7539 49.4364 13.0594 49.1108C13.3663 48.7837 13.7795 48.6201 14.2989 48.6201C14.4369 48.6201 14.5609 48.6279 14.671 48.6434C14.7811 48.6589 14.8865 48.6806 14.9873 48.7085C15.0663 48.7318 15.1524 48.7635 15.2454 48.8038C15.3384 48.8442 15.4136 48.879 15.471 48.9085L15.471 49.7341L15.3826 49.7341C15.3407 49.6969 15.288 49.6527 15.2245 49.6015C15.1609 49.5488 15.0888 49.4976 15.0082 49.448C14.9276 49.3984 14.8384 49.3566 14.7407 49.3225C14.6446 49.2868 14.5439 49.269 14.4384 49.269C14.3128 49.269 14.1973 49.2891 14.0919 49.3294C13.988 49.3682 13.8888 49.4364 13.7942 49.5341C13.7074 49.6225 13.6361 49.7418 13.5803 49.8922C13.526 50.0426 13.4989 50.2201 13.4989 50.4248C13.4989 50.6403 13.5276 50.8217 13.5849 50.969C13.6423 51.1147 13.7175 51.2325 13.8105 51.3224C13.9004 51.4093 14.0004 51.4721 14.1105 51.5108C14.2221 51.5496 14.333 51.569 14.4431 51.569C14.5578 51.569 14.6671 51.5504 14.771 51.5131C14.8749 51.4744 14.9625 51.4317 15.0338 51.3852C15.1113 51.3372 15.1795 51.2883 15.2384 51.2387C15.2973 51.1891 15.3485 51.1449 15.3919 51.1062L15.471 51.1062L15.471 51.9201C15.4074 51.9496 15.3338 51.9837 15.25 52.0224C15.1663 52.0597 15.0803 52.0914 14.9919 52.1178C14.8834 52.1503 14.7818 52.1752 14.6873 52.1922C14.5927 52.2093 14.4625 52.2178 14.2966 52.2178Z" fill="white"/>
<path d="M19.5273 52.1503L18.6576 52.1503L18.6576 50.6155L17.4739 50.6155L17.4739 52.1503L16.6041 52.1503L16.6041 48.6876L17.4739 48.6876L17.4739 49.955L18.6576 49.955L18.6576 48.6876L19.5273 48.6876L19.5273 52.1503Z" fill="white"/>
<path d="M25.9726 50.4224C25.9726 50.7449 25.9021 51.0341 25.761 51.2899C25.6199 51.5442 25.4416 51.7395 25.2261 51.8759C25.0463 51.9922 24.8501 52.0674 24.6377 52.1015C24.4269 52.1341 24.2021 52.1503 23.9633 52.1503L22.8796 52.1503L22.8796 48.6876L23.954 48.6876C24.1974 48.6876 24.4253 48.7031 24.6377 48.7341C24.8501 48.7651 25.0494 48.8403 25.2354 48.9597C25.4633 49.1054 25.6432 49.3023 25.7749 49.5504C25.9067 49.7969 25.9726 50.0876 25.9726 50.4224ZM25.0796 50.4155C25.0796 50.1876 25.0401 49.993 24.961 49.8318C24.8835 49.669 24.7633 49.5418 24.6005 49.4504C24.4827 49.3852 24.3587 49.3496 24.2284 49.3434C24.0998 49.3372 23.9455 49.3341 23.7656 49.3341L23.7494 49.3341L23.7494 51.5015L23.7656 51.5015C23.961 51.5015 24.1253 51.4984 24.2587 51.4922C24.3936 51.4845 24.5215 51.4426 24.6424 51.3666C24.785 51.2767 24.8936 51.1527 24.968 50.9945C25.0424 50.8364 25.0796 50.6434 25.0796 50.4155Z" fill="white"/>
<path d="M30.3104 52.1503L29.2499 52.1503L28.2848 50.8806L27.9732 50.8806L27.9732 52.1503L27.1081 52.1503L27.1081 48.6876L28.5011 48.6876C28.6933 48.6876 28.8608 48.7 29.0034 48.7248C29.146 48.748 29.2778 48.7976 29.3987 48.8736C29.5228 48.9527 29.6212 49.0535 29.6941 49.1759C29.767 49.2969 29.8034 49.4511 29.8034 49.6387C29.8034 49.9038 29.7437 50.1193 29.6243 50.2852C29.5049 50.4496 29.3453 50.5806 29.1453 50.6783L30.3104 52.1503ZM28.9104 49.748C28.9104 49.6612 28.8933 49.5868 28.8592 49.5248C28.8267 49.4612 28.7716 49.4124 28.6941 49.3783C28.6398 49.355 28.5794 49.3403 28.5127 49.3341C28.446 49.3279 28.3631 49.3248 28.2639 49.3248L27.9732 49.3248L27.9732 50.2573L28.222 50.2573C28.3429 50.2573 28.4453 50.2504 28.529 50.2364C28.6143 50.2209 28.6863 50.1891 28.7453 50.1411C28.8011 50.0976 28.8422 50.0457 28.8685 49.9852C28.8964 49.9248 28.9104 49.8457 28.9104 49.748Z" fill="white"/>
<path d="M32.9132 52.1503L31.0481 52.1503L31.0481 51.5457L31.5458 51.5457L31.5458 49.2922L31.0481 49.2922L31.0481 48.6876L32.9132 48.6876L32.9132 49.2922L32.4156 49.2922L32.4156 51.5457L32.9132 51.5457L32.9132 52.1503Z" fill="white"/>
<path d="M37.0022 48.6876L35.8115 52.1503L34.9045 52.1503L33.7138 48.6876L34.6161 48.6876L35.3696 51.0341L36.1231 48.6876L37.0022 48.6876Z" fill="white"/>
<path d="M37.9422 52.1503L37.9422 48.6876L40.2841 48.6876L40.2841 49.348L38.8074 49.348L38.8074 49.955L40.1678 49.955L40.1678 50.6155L38.8074 50.6155L38.8074 51.4899L40.2841 51.4899L40.2841 52.1503L37.9422 52.1503Z" fill="white"/>
<path d="M44.4591 52.1503L43.6219 52.1503L42.287 49.7364L42.287 52.1503L41.4916 52.1503L41.4916 48.6876L42.5591 48.6876L43.6637 50.6713L43.6637 48.6876L44.4591 48.6876L44.4591 52.1503Z" fill="white"/>
<path d="M50.7183 52.1503L49.8485 52.1503L49.8485 50.6155L48.6648 50.6155L48.6648 52.1503L47.7951 52.1503L47.7951 48.6876L48.6648 48.6876L48.6648 49.955L49.8485 49.955L49.8485 48.6876L50.7183 48.6876L50.7183 52.1503Z" fill="white"/>
<path d="M53.7816 52.1503L51.9165 52.1503L51.9165 51.5457L52.4142 51.5457L52.4142 49.2922L51.9165 49.2922L51.9165 48.6876L53.7816 48.6876L53.7816 49.2922L53.284 49.2922L53.284 51.5457L53.7816 51.5457L53.7816 52.1503Z" fill="white"/>
<path d="M58.1799 52.1503L57.1194 52.1503L56.1543 50.8806L55.8427 50.8806L55.8427 52.1503L54.9775 52.1503L54.9775 48.6876L56.3706 48.6876C56.5628 48.6876 56.7302 48.7 56.8729 48.7248C57.0155 48.748 57.1473 48.7976 57.2682 48.8736C57.3923 48.9527 57.4907 49.0535 57.5636 49.1759C57.6364 49.2969 57.6729 49.4511 57.6729 49.6387C57.6729 49.9038 57.6132 50.1193 57.4938 50.2852C57.3744 50.4496 57.2147 50.5806 57.0147 50.6783L58.1799 52.1503ZM56.7799 49.748C56.7799 49.6612 56.7628 49.5868 56.7287 49.5248C56.6961 49.4612 56.6411 49.4124 56.5636 49.3783C56.5093 49.355 56.4489 49.3403 56.3822 49.3341C56.3155 49.3279 56.2326 49.3248 56.1334 49.3248L55.8427 49.3248L55.8427 50.2573L56.0915 50.2573C56.2124 50.2573 56.3147 50.2504 56.3985 50.2364C56.4837 50.2209 56.5558 50.1891 56.6147 50.1411C56.6706 50.0976 56.7116 50.0457 56.738 49.9852C56.7659 49.9248 56.7799 49.8457 56.7799 49.748Z" fill="white"/>
<path d="M60.7827 52.1503L58.9176 52.1503L58.9176 51.5457L59.4153 51.5457L59.4153 49.2922L58.9176 49.2922L58.9176 48.6876L60.7827 48.6876L60.7827 49.2922L60.2851 49.2922L60.2851 51.5457L60.7827 51.5457L60.7827 52.1503Z" fill="white"/>
<path d="M64.9461 52.1503L64.1089 52.1503L62.774 49.7364L62.774 52.1503L61.9786 52.1503L61.9786 48.6876L63.0461 48.6876L64.1507 50.6713L64.1507 48.6876L64.9461 48.6876L64.9461 52.1503Z" fill="white"/>
<path d="M69.1606 51.9527C69.0086 52.0147 68.811 52.0752 68.5675 52.1341C68.3257 52.193 68.0869 52.2224 67.8513 52.2224C67.3071 52.2224 66.873 52.0659 66.5489 51.7527C66.2265 51.4379 66.0652 50.9922 66.0652 50.4155C66.0652 49.8728 66.2265 49.438 66.5489 49.1108C66.873 48.7837 67.3156 48.6201 67.8768 48.6201C68.1668 48.6201 68.4024 48.648 68.5838 48.7039C68.7652 48.7581 68.9528 48.8325 69.1466 48.9271L69.1466 49.7387L69.0675 49.7387C69.0257 49.7062 68.9652 49.6604 68.8861 49.6015C68.8086 49.5411 68.7327 49.4899 68.6582 49.448C68.5714 49.3984 68.4706 49.3558 68.3559 49.3201C68.2427 49.2845 68.1226 49.2666 67.9954 49.2666C67.8466 49.2666 67.711 49.2899 67.5885 49.3364C67.466 49.3829 67.3567 49.4542 67.2606 49.5504C67.1691 49.6434 67.0962 49.7612 67.042 49.9038C66.9893 50.0465 66.9629 50.2124 66.9629 50.4015C66.9629 50.8062 67.0644 51.1046 67.2675 51.2969C67.4706 51.4891 67.7482 51.5852 68.1001 51.5852C68.1311 51.5852 68.1675 51.5845 68.2094 51.5829C68.2513 51.5814 68.2877 51.579 68.3187 51.5759L68.3187 50.8969L67.6466 50.8969L67.6466 50.248L69.1606 50.248L69.1606 51.9527Z" fill="white"/>
<path d="M73.5198 52.2131C73.2547 52.2131 73.0214 52.1876 72.8198 52.1364C72.6198 52.0852 72.4338 52.0217 72.2617 51.9457L72.2617 51.1224L72.3407 51.1224C72.5144 51.2697 72.7058 51.3829 72.9152 51.462C73.1245 51.541 73.3276 51.5806 73.5245 51.5806C73.5741 51.5806 73.6392 51.5752 73.7198 51.5643C73.802 51.5535 73.8679 51.5364 73.9175 51.5131C73.9779 51.4868 74.0291 51.4504 74.071 51.4038C74.1128 51.3558 74.1338 51.293 74.1338 51.2155C74.1338 51.1286 74.0996 51.0581 74.0314 51.0038C73.9632 50.9496 73.8818 50.91 73.7872 50.8852C73.6694 50.8542 73.5431 50.8248 73.4082 50.7969C73.2748 50.769 73.15 50.7349 73.0338 50.6945C72.7655 50.6 72.5733 50.4728 72.457 50.3131C72.3407 50.1535 72.2826 49.9535 72.2826 49.7131C72.2826 49.3891 72.4198 49.1271 72.6942 48.9271C72.9686 48.7256 73.3113 48.6248 73.7221 48.6248C73.9283 48.6248 74.133 48.6457 74.3361 48.6876C74.5407 48.7294 74.7237 48.786 74.8849 48.8573L74.8849 49.648L74.8082 49.648C74.6795 49.538 74.5221 49.4449 74.3361 49.369C74.1516 49.293 73.9617 49.255 73.7663 49.255C73.6903 49.255 73.6221 49.2604 73.5617 49.2713C73.5012 49.2821 73.4376 49.3031 73.371 49.3341C73.3167 49.3589 73.2694 49.3961 73.2291 49.4457C73.1903 49.4938 73.171 49.548 73.171 49.6085C73.171 49.6969 73.202 49.7674 73.264 49.8201C73.3276 49.8713 73.4493 49.9178 73.6291 49.9597C73.7454 49.986 73.857 50.0116 73.964 50.0364C74.0725 50.0612 74.188 50.0953 74.3105 50.1387C74.5508 50.2256 74.7291 50.3426 74.8454 50.4899C74.9632 50.6356 75.0221 50.8286 75.0221 51.069C75.0221 51.4131 74.8865 51.6899 74.6152 51.8992C74.3454 52.1085 73.9803 52.2131 73.5198 52.2131Z" fill="white"/>
<path d="M79.2413 50.4201C79.2413 50.9798 79.0917 51.4201 78.7924 51.741C78.4932 52.062 78.0831 52.2224 77.5622 52.2224C77.0397 52.2224 76.6296 52.0604 76.332 51.7364C76.0343 51.4108 75.8855 50.9721 75.8855 50.4201C75.8855 49.8635 76.0343 49.424 76.332 49.1015C76.6296 48.7775 77.0397 48.6155 77.5622 48.6155C78.0831 48.6155 78.4932 48.7767 78.7924 49.0992C79.0917 49.4201 79.2413 49.8604 79.2413 50.4201ZM78.3436 50.4178C78.3436 50.2116 78.3219 50.0364 78.2785 49.8922C78.2366 49.7465 78.18 49.6271 78.1087 49.5341C78.0343 49.4395 77.9498 49.3721 77.8552 49.3318C77.7622 49.2899 77.6653 49.269 77.5645 49.269C77.4576 49.269 77.3607 49.2883 77.2738 49.3271C77.187 49.3643 77.1033 49.4318 77.0227 49.5294C76.9514 49.6194 76.8932 49.7387 76.8483 49.8876C76.8048 50.0364 76.7831 50.2139 76.7831 50.4201C76.7831 50.6325 76.8041 50.8093 76.8459 50.9504C76.8878 51.0899 76.9452 51.2069 77.018 51.3015C77.0924 51.3976 77.1769 51.4666 77.2715 51.5085C77.3661 51.5488 77.4638 51.569 77.5645 51.569C77.6669 51.569 77.7661 51.5473 77.8622 51.5038C77.9583 51.4589 78.0413 51.3899 78.111 51.2969C78.1855 51.1961 78.2428 51.079 78.2831 50.9457C78.3234 50.8108 78.3436 50.6349 78.3436 50.4178Z" fill="white"/>
<path d="M82.6883 52.1503L80.3767 52.1503L80.3767 48.6876L81.2465 48.6876L81.2465 51.4899L82.6883 51.4899L82.6883 52.1503Z" fill="white"/>
<path d="M85.1214 52.2224C84.6563 52.2224 84.2982 52.11 84.047 51.8852C83.7974 51.6604 83.6726 51.3317 83.6726 50.8992L83.6726 48.6876L84.5424 48.6876L84.5424 50.848C84.5424 51.0883 84.5873 51.2674 84.6773 51.3852C84.7687 51.5031 84.9168 51.562 85.1214 51.562C85.3214 51.562 85.4679 51.5054 85.561 51.3922C85.6555 51.279 85.7028 51.0976 85.7028 50.848L85.7028 48.6876L86.5726 48.6876L86.5726 50.8969C86.5726 51.3232 86.4501 51.6511 86.2052 51.8806C85.9617 52.1085 85.6005 52.2224 85.1214 52.2224Z" fill="white"/>
<path d="M88.5266 52.1503L88.5266 49.348L87.5034 49.348L87.5034 48.6876L90.4196 48.6876L90.4196 49.348L89.3964 49.348L89.3964 52.1503L88.5266 52.1503Z" fill="white"/>
<path d="M93.1225 52.1503L91.2574 52.1503L91.2574 51.5457L91.7551 51.5457L91.7551 49.2922L91.2574 49.2922L91.2574 48.6876L93.1225 48.6876L93.1225 49.2922L92.6248 49.2922L92.6248 51.5457L93.1225 51.5457L93.1225 52.1503Z" fill="white"/>
<path d="M97.4719 50.4201C97.4719 50.9798 97.3223 51.4201 97.0231 51.741C96.7238 52.062 96.3138 52.2224 95.7928 52.2224C95.2704 52.2224 94.8603 52.0604 94.5626 51.7364C94.2649 51.4108 94.1161 50.9721 94.1161 50.4201C94.1161 49.8635 94.2649 49.424 94.5626 49.1015C94.8603 48.7775 95.2704 48.6155 95.7928 48.6155C96.3138 48.6155 96.7238 48.7767 97.0231 49.0992C97.3223 49.4201 97.4719 49.8604 97.4719 50.4201ZM96.5742 50.4178C96.5742 50.2116 96.5525 50.0364 96.5091 49.8922C96.4673 49.7465 96.4107 49.6271 96.3393 49.5341C96.2649 49.4395 96.1804 49.3721 96.0859 49.3318C95.9928 49.2899 95.8959 49.269 95.7952 49.269C95.6882 49.269 95.5913 49.2883 95.5045 49.3271C95.4176 49.3643 95.3339 49.4318 95.2533 49.5294C95.182 49.6194 95.1238 49.7387 95.0789 49.8876C95.0355 50.0364 95.0138 50.2139 95.0138 50.4201C95.0138 50.6325 95.0347 50.8093 95.0766 50.9504C95.1184 51.0899 95.1758 51.2069 95.2487 51.3015C95.3231 51.3976 95.4076 51.4666 95.5021 51.5085C95.5967 51.5488 95.6944 51.569 95.7952 51.569C95.8975 51.569 95.9967 51.5473 96.0928 51.5038C96.189 51.4589 96.2719 51.3899 96.3417 51.2969C96.4161 51.1961 96.4735 51.079 96.5138 50.9457C96.5541 50.8108 96.5742 50.6349 96.5742 50.4178Z" fill="white"/>
<path d="M101.575 52.1503L100.738 52.1503L99.4027 49.7364L99.4027 52.1503L98.6073 52.1503L98.6073 48.6876L99.6748 48.6876L100.779 50.6713L100.779 48.6876L101.575 48.6876L101.575 52.1503Z" fill="white"/>
<path d="M107.65 26.8967L107.65 24.4289L108.434 24.4289C108.659 24.4289 108.844 24.4555 108.991 24.5086C109.138 24.5575 109.247 24.6371 109.316 24.7474C109.385 24.8535 109.42 24.9882 109.42 25.1515C109.42 25.2985 109.379 25.4271 109.298 25.5373C109.22 25.6475 109.108 25.7374 108.961 25.8068L109.671 26.8967L109.034 26.8967L108.477 25.9537L108.208 25.9537L108.208 26.8967L107.65 26.8967ZM108.208 25.5373L108.422 25.5373C108.557 25.5373 108.661 25.5087 108.734 25.4516C108.812 25.3903 108.851 25.2965 108.851 25.1699C108.851 25.0556 108.814 24.9739 108.74 24.925C108.671 24.876 108.563 24.8515 108.416 24.8515L108.208 24.8515L108.208 25.5373ZM108.471 28.3174C108.103 28.3174 107.758 28.248 107.436 28.1092C107.118 27.9745 106.836 27.7867 106.591 27.5458C106.35 27.3009 106.16 27.0192 106.021 26.7008C105.887 26.3783 105.819 26.0333 105.819 25.6659C105.819 25.2985 105.887 24.9556 106.021 24.6371C106.16 24.3146 106.35 24.033 106.591 23.7921C106.836 23.5472 107.118 23.3573 107.436 23.2226C107.758 23.0838 108.103 23.0144 108.471 23.0144C108.838 23.0144 109.181 23.0838 109.5 23.2226C109.822 23.3573 110.104 23.5472 110.345 23.7921C110.59 24.033 110.779 24.3146 110.914 24.6371C111.053 24.9556 111.122 25.2985 111.122 25.6659C111.122 26.0333 111.053 26.3783 110.914 26.7008C110.779 27.0192 110.59 27.3009 110.345 27.5458C110.104 27.7867 109.822 27.9745 109.5 28.1092C109.181 28.248 108.838 28.3174 108.471 28.3174ZM108.471 27.7724C108.765 27.7724 109.038 27.7193 109.291 27.6132C109.545 27.503 109.767 27.3519 109.959 27.1601C110.155 26.9641 110.306 26.7396 110.412 26.4865C110.522 26.2293 110.577 25.9558 110.577 25.6659C110.577 25.372 110.522 25.0985 110.412 24.8454C110.306 24.5922 110.155 24.3698 109.959 24.1779C109.767 23.9819 109.542 23.8309 109.285 23.7247C109.032 23.6145 108.761 23.5594 108.471 23.5594C108.177 23.5594 107.903 23.6145 107.65 23.7247C107.397 23.8309 107.173 23.9819 106.977 24.1779C106.785 24.3698 106.634 24.5943 106.524 24.8515C106.417 25.1046 106.364 25.3761 106.364 25.6659C106.364 25.9598 106.417 26.2334 106.524 26.4865C106.634 26.7396 106.785 26.9641 106.977 27.1601C107.173 27.3519 107.397 27.503 107.65 27.6132C107.908 27.7193 108.181 27.7724 108.471 27.7724Z" fill="white"/>
</svg>
