<svg width="23" height="23" viewBox="0 0 23 23" fill="none" xmlns="http://www.w3.org/2000/svg">
<path d="M22.2641 17.3043L17.2432 12.7409C17.0059 12.5252 16.694 12.4103 16.3735 12.4202C16.053 12.4302 15.7489 12.5643 15.5254 12.7943L12.5707 15.834C11.8594 15.6983 10.4292 15.2528 8.9569 13.7847C7.48457 12.3116 7.0385 10.878 6.90623 10.1716L9.94242 7.21458C10.1726 6.99117 10.3068 6.68697 10.3167 6.36636C10.3265 6.04575 10.2112 5.73388 9.99521 5.49676L5.43118 0.478767C5.21507 0.240903 4.91475 0.0966507 4.594 0.0766478C4.27325 0.0566449 3.95733 0.162467 3.71335 0.371639L1.03393 2.67036C0.820464 2.88468 0.69308 3.1699 0.675945 3.4719C0.657477 3.78064 0.305611 11.0941 5.97751 16.7664C10.9256 21.7114 17.1226 22.0721 18.8293 22.0718C19.0788 22.0718 19.2319 22.0643 19.2727 22.0619C19.5746 22.0449 19.8596 21.9169 20.0728 21.7024L22.3694 19.0209C22.5793 18.7776 22.6858 18.4619 22.6661 18.1412C22.6464 17.8204 22.5021 17.5201 22.2641 17.3043Z" fill="white"/>
</svg>
